<?xml version="1.0" standalone="no"?>
<!DOCTYPE svg PUBLIC "-//W3C//DTD SVG 1.1//EN" "http://www.w3.org/Graphics/SVG/1.1/DTD/svg11.dtd" >
<svg xmlns="http://www.w3.org/2000/svg" xmlns:xlink="http://www.w3.org/1999/xlink" version="1.1">
<metadata></metadata>
<defs>
<font id="rationaleregular" horiz-adv-x="892" >
<font-face units-per-em="2048" ascent="1638" descent="-410" />
<missing-glyph horiz-adv-x="399" />
<glyph horiz-adv-x="0" />
<glyph unicode="&#xd;" horiz-adv-x="532" />
<glyph unicode=" "  horiz-adv-x="399" />
<glyph unicode="&#x09;" horiz-adv-x="399" />
<glyph unicode="&#xa0;" horiz-adv-x="399" />
<glyph unicode="!" horiz-adv-x="462" d="M147 55v109h125q33 0 44.5 -11.5t11.5 -43.5v-109h-125q-33 0 -44.5 11.5t-11.5 43.5zM147 328v1050q0 33 11.5 44.5t44.5 11.5h108v-1051q0 -33 -11 -44t-44 -11h-109z" />
<glyph unicode="&#x22;" horiz-adv-x="657" d="M125 1161v273h84q33 0 44 -11.5t11 -44.5v-272h-84q-33 0 -44 11t-11 44zM391 1161v273h84q33 0 44 -11.5t11 -44.5v-272h-84q-33 0 -44 11t-11 44z" />
<glyph unicode="#" horiz-adv-x="1638" d="M147 0v1378q0 33 11.5 44.5t44.5 11.5h116l355 -863l74 -227h4l-19 231v803q0 33 11.5 44.5t43.5 11.5h109v-1379q0 -33 -11.5 -44t-43.5 -11h-90l-377 905l-78 228h-4l18 -236v-842q0 -33 -11 -44t-44 -11h-109zM1090 670v63h383q33 0 44 -11t11 -44v-64h-383 q-33 0 -44 11.5t-11 44.5zM1090 1014v246q0 53 7 86.5t26.5 53t53 27t87.5 7.5h90q53 0 87 -7.5t53 -27t26.5 -53t7.5 -86.5v-246q0 -53 -7.5 -87t-26.5 -53.5t-53 -26.5t-87 -7h-90q-53 0 -87 7t-53.5 26.5t-26.5 53.5t-7 87zM1223 1044q0 -63 18.5 -79.5t67.5 -16.5 q51 0 68.5 16.5t17.5 79.5v185q0 63 -18.5 79.5t-67.5 16.5q-51 0 -68.5 -16.5t-17.5 -79.5v-185z" />
<glyph unicode="$" horiz-adv-x="890" d="M131 283h369q63 0 79.5 26.5t16.5 89.5v168q0 63 -17.5 90t-86.5 27h-166q-106 0 -150.5 44t-44.5 151v176q0 106 44 150t151 44h57v129q0 33 11.5 44.5t43.5 11.5h84v-185h119q59 0 78.5 -29.5t23.5 -89.5h-352q-63 0 -79.5 -26.5t-16.5 -89.5v-94q0 -63 16.5 -90 t79.5 -27h174q106 0 150.5 -44t44.5 -151v-250q0 -106 -44 -150t-151 -44h-41v-109q0 -33 -11 -44t-44 -11h-80v164h-156q-59 0 -78.5 29.5t-23.5 89.5z" />
<glyph unicode="%" horiz-adv-x="1292" d="M106 1014v246q0 53 7.5 86.5t27 53t53 27t87.5 7.5h90q53 0 87 -7.5t53 -27t26.5 -53t7.5 -86.5v-246q0 -53 -7.5 -87t-26.5 -53.5t-53 -26.5t-87 -7h-90q-53 0 -87 7t-53.5 26.5t-27 53.5t-7.5 87zM195 0l671 1378q16 33 32.5 44.5t49.5 11.5h109l-672 -1379 q-16 -33 -32.5 -44t-49.5 -11h-108zM240 1044q0 -63 18 -79.5t68 -16.5q51 0 68.5 16.5t17.5 79.5v185q0 63 -18.5 79.5t-67.5 16.5q-51 0 -68.5 -16.5t-17.5 -79.5v-185zM750 174v246q0 53 7 87t26.5 53.5t53 26.5t87.5 7h90q53 0 87 -7t53.5 -26.5t26.5 -53.5t7 -87v-246 q0 -53 -7 -87t-26.5 -53.5t-53.5 -26.5t-87 -7h-90q-53 0 -87 7t-53.5 26.5t-26.5 53.5t-7 87zM883 205q0 -63 18.5 -79.5t67.5 -16.5q51 0 68.5 16t17.5 80v184q0 63 -18.5 79.5t-67.5 16.5q-51 0 -68.5 -16t-17.5 -80v-184z" />
<glyph unicode="&#x26;" horiz-adv-x="927" d="M135 195v372q0 156 113 185v4q-59 14 -86 57t-27 127v299q0 106 44 150.5t151 44.5h262q59 0 78.5 -30t23.5 -89h-299q-63 0 -79.5 -26.5t-16.5 -90.5v-278q0 -63 16.5 -90t79.5 -27h189v63q0 33 11 44.5t44 11.5h96v-119h78q33 0 42 -11.5t9 -43.5v-64h-129v-629 q0 -33 -11 -44t-44 -11h-96v684h-189q-63 0 -79.5 -26.5t-16.5 -90.5v-331q0 -63 16.5 -90t79.5 -27h107v-64q0 -33 -9.5 -44t-41.5 -11h-121q-106 0 -150.5 44t-44.5 151z" />
<glyph unicode="'" horiz-adv-x="391" d="M125 1161v273h84q33 0 44 -11.5t11 -44.5v-272h-84q-33 0 -44 11t-11 44z" />
<glyph unicode="(" horiz-adv-x="573" d="M145 -72v1434q0 106 40 150t147 44h110q33 0 42.5 -10t9.5 -45v-63h-97q-63 0 -79.5 -27t-16.5 -90v-1352q0 -63 16.5 -89.5t79.5 -26.5h97v-64q0 -35 -9.5 -45t-42.5 -10h-110q-106 0 -146.5 44t-40.5 150z" />
<glyph unicode=")" horiz-adv-x="573" d="M82 -147h96q63 0 79.5 26.5t16.5 89.5v1352q0 63 -16 90t-80 27h-96v63q0 35 9 45t42 10h111q106 0 146 -44t40 -150v-1434q0 -106 -40 -150t-146 -44h-111q-33 0 -42 10t-9 45v64z" />
<glyph unicode="*" horiz-adv-x="903" d="M102 977l230 131l-182 106q-29 16 -32 32t13 44l31 53l229 -133v211q0 33 11.5 44.5t43.5 11.5h64v-267l182 107q29 16 43.5 12t30.5 -33l33 -55l-230 -133l183 -104q29 -16 31.5 -32t-13.5 -44l-31 -54l-229 132v-209q0 -33 -11.5 -44.5t-43.5 -11.5h-64v265l-182 -105 q-29 -16 -43 -12t-31 33z" />
<glyph unicode="+" d="M139 739v64h248v190q0 33 11.5 44.5t43.5 11.5h64v-246h192q33 0 44.5 -11.5t11.5 -43.5v-64h-248v-195q0 -33 -11.5 -44t-43.5 -11h-64v250h-192q-33 0 -44.5 11.5t-11.5 43.5z" />
<glyph unicode="," horiz-adv-x="440" d="M133 55v109h125q33 0 44 -11.5t11 -43.5v-175q0 -33 -7 -67.5t-22.5 -65t-38 -52t-50.5 -28.5v279h-7q-33 0 -44 11.5t-11 43.5z" />
<glyph unicode="-" horiz-adv-x="884" d="M135 739v64h559q33 0 44.5 -11.5t11.5 -43.5v-64h-560q-33 0 -44 11.5t-11 43.5z" />
<glyph unicode="." horiz-adv-x="440" d="M133 55v109h125q33 0 44 -11.5t11 -43.5v-109h-125q-33 0 -44 11.5t-11 43.5z" />
<glyph unicode="/" horiz-adv-x="802" d="M84 -248l465 1749q10 33 23.5 44t45.5 11h101l-465 -1749q-10 -33 -23.5 -44t-46.5 -11h-100z" />
<glyph unicode="0" horiz-adv-x="899" d="M143 195v1044q0 106 44 150.5t151 44.5h223q106 0 150.5 -44t44.5 -151v-1044q0 -106 -44 -150.5t-151 -44.5h-223q-106 0 -150.5 44t-44.5 151zM297 236q0 -63 16.5 -90t79.5 -27h113q63 0 79.5 26.5t16.5 90.5v962q0 63 -16.5 90t-79.5 27h-113q-63 0 -79.5 -26.5 t-16.5 -90.5v-962z" />
<glyph unicode="1" horiz-adv-x="458" d="M147 0v1264q0 84 41 118.5t123 51.5v-1379q0 -33 -11 -44t-44 -11h-109z" />
<glyph unicode="2" horiz-adv-x="823" d="M123 195v413q0 59 9 97t31.5 59.5t59.5 30t94 8.5h119q31 0 50.5 5t29.5 17.5t13 35t3 59.5v278q0 63 -16 90t-80 27h-301q12 59 38 89t85 30h244q106 0 150 -44t44 -151v-360q0 -59 -9 -97.5t-31.5 -60t-59.5 -29.5t-94 -8h-119q-31 0 -50.5 -5t-29.5 -17.5t-13 -35 t-3 -59.5v-331q0 -63 16 -90t80 -27h313v-64q0 -33 -11 -44t-44 -11h-324q-106 0 -150 44t-44 151z" />
<glyph unicode="3" horiz-adv-x="802" d="M90 1315q12 59 38 89t85 30h244q106 0 150 -44t44 -151v-299q0 -84 -18.5 -127t-77.5 -57v-2q113 -29 113 -187v-372q0 -106 -44 -150.5t-151 -44.5h-244q-59 0 -84.5 29.5t-38.5 89.5h302q63 0 79.5 26.5t16.5 90.5v331q0 63 -26.5 90t-90.5 27h-172v64q0 33 11.5 44 t43.5 11h129q55 2 71.5 29.5t16.5 87.5v278q0 63 -16 90t-80 27h-301z" />
<glyph unicode="4" horiz-adv-x="880" d="M98 879v499q0 33 11.5 44.5t44.5 11.5h108v-514q0 -37 3 -59.5t13.5 -35t30 -17.5t49.5 -5h211v575q0 33 11.5 44.5t44.5 11.5h108v-1379q0 -33 -11 -44t-44 -11h-109v684h-276q-57 0 -94 8t-59.5 29.5t-32 59.5t-9.5 98z" />
<glyph unicode="5" horiz-adv-x="839" d="M125 119h336q63 0 79.5 26.5t16.5 90.5v331q0 63 -16.5 90t-79.5 27h-271q-33 0 -44 11.5t-11 43.5v639q0 33 11.5 44.5t43.5 11.5h504v-64q0 -33 -9 -44t-42 -11h-352l-2 -512h237q106 0 150.5 -44t44.5 -151v-413q0 -106 -44 -150.5t-151 -44.5h-278q-59 0 -85 29.5 t-38 89.5z" />
<glyph unicode="6" horiz-adv-x="894" d="M143 195v1044q0 106 44 150.5t151 44.5h285q59 0 84.5 -30t37.5 -89h-342q-63 0 -79.5 -26.5t-16.5 -90.5v-962q0 -63 16.5 -90t79.5 -27h113q63 0 79.5 26.5t16.5 90.5v331q0 63 -16 90t-80 27h-127v64q0 33 9.5 44t41.5 11h142q106 0 150 -44t44 -151v-413 q0 -106 -44 -150.5t-150 -44.5h-244q-106 0 -150.5 44t-44.5 151z" />
<glyph unicode="7" horiz-adv-x="733" d="M68 1315v63q0 33 11 44.5t44 11.5h495q31 0 39.5 -11.5t10.5 -44.5v-63l-353 -1315h-155l350 1315h-442z" />
<glyph unicode="8" horiz-adv-x="909" d="M141 195v372q0 158 113 187v2q-59 14 -86 57t-27 127v299q0 106 39 150.5t146 44.5h258q106 0 145 -44t39 -151v-299q0 -84 -26.5 -127t-86.5 -57v-2q113 -29 113 -187v-372q0 -106 -36 -150.5t-142 -44.5h-264q-106 0 -145.5 44t-39.5 151zM305 236q0 -63 16.5 -90 t79.5 -27h107q63 0 79.5 26.5t16.5 90.5v331q0 63 -16.5 90t-79.5 27h-107q-63 0 -79.5 -26.5t-16.5 -90.5v-331zM305 920q0 -63 16.5 -90t79.5 -27h107q63 0 79.5 26.5t16.5 90.5v286q0 63 -16.5 90t-79.5 27h-107q-63 0 -79.5 -26.5t-16.5 -90.5v-286z" />
<glyph unicode="9" horiz-adv-x="874" d="M119 825v414q0 106 44 150.5t150 44.5h224q106 0 150 -44t44 -151v-1044q0 -106 -44 -150.5t-150 -44.5h-267q-59 0 -84.5 29.5t-38.5 89.5h324q63 0 79.5 26.5t16.5 90.5v970q0 63 -16 90t-80 27h-92q-63 0 -79.5 -26.5t-16.5 -90.5v-340q0 -63 16 -89.5t80 -26.5h106 v-64q0 -33 -9 -44t-42 -11h-121q-106 0 -150 44t-44 150z" />
<glyph unicode=":" horiz-adv-x="450" d="M135 55v109h125q33 0 44 -11.5t11 -43.5v-109h-125q-33 0 -44 11.5t-11 43.5zM135 813v109h125q33 0 44 -11.5t11 -44.5v-108h-125q-33 0 -44 11t-11 44z" />
<glyph unicode=";" horiz-adv-x="450" d="M133 55v109h125q33 0 44 -11.5t11 -43.5v-175q0 -33 -7 -67.5t-22.5 -65t-38 -52t-50.5 -28.5v279h-7q-33 0 -44 11.5t-11 43.5zM133 813v109h125q33 0 44 -11.5t11 -43.5v-109h-125q-33 0 -44 11.5t-11 43.5z" />
<glyph unicode="&#x3c;" horiz-adv-x="714" d="M109 672q-39 37 0 73l419 416l47 -47q23 -23 22 -38t-24 -38l-331 -329l331 -330q23 -23 24 -38t-22 -38l-47 -47z" />
<glyph unicode="=" d="M139 565v64h559q33 0 44.5 -11.5t11.5 -44.5v-63h-559q-33 0 -44.5 11t-11.5 44zM139 842v63h559q33 0 44.5 -11t11.5 -44v-64h-559q-33 0 -44.5 11.5t-11.5 44.5z" />
<glyph unicode="&#x3e;" horiz-adv-x="714" d="M118 341q-1 -15 22 -38l47 -47l419 416q39 37 0 73l-419 416l-47 -47q-23 -23 -22 -38t24 -38l331 -329l-331 -330q-23 -23 -24 -38z" />
<glyph unicode="?" horiz-adv-x="776" d="M100 1315q12 59 38 89t85 30h248q106 0 150.5 -44t44.5 -151v-324q0 -106 -44 -150t-151 -44h-14q-63 0 -80 -26.5t-17 -90.5v-229q0 -33 -11 -44.5t-44 -11.5h-108v326q0 106 44 150.5t150 44.5h15q63 0 79.5 26.5t16.5 89.5v242q0 63 -16.5 90t-79.5 27h-306zM197 55 v109h125q33 0 44 -11.5t11 -43.5v-109h-125q-33 0 -44 11.5t-11 43.5z" />
<glyph unicode="@" horiz-adv-x="1019" d="M135 195v628q0 106 44 150.5t151 44.5h387q102 -2 138 -46t36 -149v-561h-94q-33 0 -44.5 11.5t-11.5 43.5v320h-75q-33 0 -52.5 -4t-29 -16.5t-11.5 -36t-2 -60.5v-22q0 -37 3.5 -60.5t13.5 -36t29.5 -16.5t50.5 -4h10v-64q0 -33 -9.5 -44t-41.5 -11h-4 q-106 0 -150.5 44t-44.5 151v104q0 106 44 150.5t151 44.5h118v26q0 59 -15 86t-69 31h-272q-63 0 -79.5 -26.5t-16.5 -90.5v-546q0 -63 16.5 -90t79.5 -27h485v-64q0 -33 -11 -44t-44 -11h-485q-106 0 -150.5 44t-44.5 151z" />
<glyph unicode="A" horiz-adv-x="976" d="M147 0v1239q0 106 44.5 150.5t150.5 44.5h295q106 0 150 -44t44 -151v-1184q0 -33 -11 -44t-44 -11h-108v1198q0 59 -15.5 86t-68.5 31h-189q-55 -4 -69.5 -31t-14.5 -86v-395h275v-64q0 -33 -9.5 -44t-41.5 -11h-224v-629q0 -33 -11 -44t-44 -11h-109z" />
<glyph unicode="B" horiz-adv-x="952" d="M147 0v1378q0 33 11.5 44.5t44.5 11.5h413q106 0 150.5 -44t44.5 -151v-299q0 -158 -113 -184v-4q59 -16 86 -59.5t27 -125.5v-372q0 -106 -44 -150.5t-151 -44.5h-172q-33 0 -42 11.5t-9 43.5v64h158q63 0 79.5 26.5t16.5 90.5v331q0 63 -16.5 90t-79.5 27h-240v-684 h-164zM311 803h252q53 2 68.5 29.5t15.5 87.5v278q0 63 -16.5 90t-79.5 27h-240v-512z" />
<glyph unicode="C" horiz-adv-x="798" d="M143 195v1044q0 106 44 150.5t151 44.5h264q59 0 85 -30t38 -89h-322q-63 0 -79.5 -26.5t-16.5 -90.5v-962q0 -63 16.5 -90t79.5 -27h322v-64q0 -33 -9 -44t-42 -11h-336q-106 0 -150.5 44t-44.5 151z" />
<glyph unicode="D" horiz-adv-x="974" d="M147 0v1378q0 33 11.5 44.5t44.5 11.5h434q106 0 150 -44t44 -151v-1044q0 -106 -44 -150.5t-150 -44.5h-193q-33 0 -42 11.5t-9 43.5v64h178q63 0 80 26.5t17 90.5v962q0 63 -16.5 90t-80.5 27h-260v-1315h-164z" />
<glyph unicode="E" horiz-adv-x="796" d="M147 0v1378q0 33 11.5 44.5t44.5 11.5h499v-64q0 -33 -9 -44t-42 -11h-340v-512h330v-64q0 -33 -9 -44t-42 -11h-279v-565h391v-64q0 -33 -11 -44t-44 -11h-500z" />
<glyph unicode="F" horiz-adv-x="763" d="M147 0v1378q0 33 11.5 44.5t44.5 11.5h499v-64q0 -33 -9 -44t-42 -11h-340v-512h330v-64q0 -33 -9 -44t-42 -11h-279v-629q0 -33 -11 -44t-44 -11h-109z" />
<glyph unicode="G" horiz-adv-x="950" d="M143 195v1044q0 106 44 150.5t151 44.5h399q33 0 42 -11.5t9 -44.5v-63h-385q-63 0 -79.5 -26.5t-16.5 -90.5v-962q0 -63 16.5 -90t79.5 -27h164q63 0 80 26.5t17 90.5v448h-177v64q0 33 11.5 44t44.5 11h284v-608q0 -106 -45 -150.5t-151 -44.5h-293q-106 0 -150.5 44 t-44.5 151z" />
<glyph unicode="H" horiz-adv-x="1019" d="M147 0v1378q0 33 11.5 44.5t44.5 11.5h108v-631h316v-64q0 -33 -9.5 -44t-42.5 -11h-264v-629q0 -33 -11 -44t-44 -11h-109zM709 0v1378q0 33 11 44.5t44 11.5h108v-1379q0 -33 -11 -44t-44 -11h-108z" />
<glyph unicode="I" horiz-adv-x="458" d="M147 0v1378q0 33 11.5 44.5t44.5 11.5h108v-1379q0 -33 -11 -44t-44 -11h-109z" />
<glyph unicode="J" horiz-adv-x="458" d="M-66 -172q0 33 9.5 44t42.5 11h65q63 0 79.5 27t16.5 90v1378q0 33 11.5 44.5t44.5 11.5h108v-1475q0 -106 -44 -150.5t-150 -44.5h-183v64z" />
<glyph unicode="K" horiz-adv-x="935" d="M147 0v1378q0 33 11.5 44.5t44.5 11.5h108v-1379q0 -33 -11 -44t-44 -11h-109zM393 672v145l289 561q14 29 43 42.5t61 13.5h86l-356 -678l389 -756h-102q-33 0 -61.5 13.5t-43.5 41.5z" />
<glyph unicode="L" horiz-adv-x="794" d="M147 0v1378q0 33 11.5 44.5t44.5 11.5h108v-1315h432v-64q0 -33 -11 -44t-44 -11h-541z" />
<glyph unicode="M" horiz-adv-x="1310" d="M147 0v1378q0 33 11.5 44.5t44.5 11.5h137l262 -668l45 -170h12l48 170l258 612q12 29 28.5 42.5t46.5 13.5h123v-1379q0 -33 -11 -44t-44 -11h-109v944l19 248h-12l-287 -694q-14 -31 -27.5 -43.5t-40.5 -12.5h-65l-285 750h-12l16 -248l10 -889q0 -33 -11 -44t-44 -11 h-113z" />
<glyph unicode="N" horiz-adv-x="1095" d="M147 0v1378q0 33 11.5 44.5t44.5 11.5h110l379 -877l113 -305h12l-33 311v815q0 33 11.5 44.5t44.5 11.5h108v-1379q0 -33 -11 -44t-44 -11h-107l-378 860l-115 330h-12l30 -287v-848q0 -33 -11 -44t-44 -11h-109z" />
<glyph unicode="O" horiz-adv-x="991" d="M143 195v1044q0 106 44 150.5t151 44.5h315q106 0 150.5 -44t44.5 -151v-1044q0 -106 -44 -150.5t-151 -44.5h-315q-106 0 -150.5 44t-44.5 151zM307 236q0 -63 16.5 -90t79.5 -27h185q63 0 79.5 26.5t16.5 90.5v962q0 63 -16.5 90t-79.5 27h-185q-63 0 -79.5 -26.5 t-16.5 -90.5v-962z" />
<glyph unicode="P" horiz-adv-x="911" d="M147 0v1378q0 33 11.5 44.5t44.5 11.5h413q106 0 150.5 -44t44.5 -151v-442q0 -106 -44 -150.5t-151 -44.5h-172q-33 0 -42 11.5t-9 43.5v64h158q63 0 79.5 26.5t16.5 90.5v360q0 63 -16.5 90t-79.5 27h-240v-1260q0 -33 -11 -44t-44 -11h-109z" />
<glyph unicode="Q" horiz-adv-x="991" d="M143 195v1044q0 106 44 150.5t151 44.5h315q106 0 150.5 -44t44.5 -151v-1044q0 -106 -44 -150.5t-151 -44.5h-114v-16q0 -72 18 -94.5t78 -22.5h88v-64q0 -33 -9 -44t-42 -11h-78q-88 0 -131 45t-43 150v57h-82q-106 0 -150.5 44t-44.5 151zM307 236q0 -63 16.5 -90 t79.5 -27h185q63 0 79.5 26.5t16.5 90.5v962q0 63 -16.5 90t-79.5 27h-185q-63 0 -79.5 -26.5t-16.5 -90.5v-962z" />
<glyph unicode="R" horiz-adv-x="958" d="M147 0v1378q0 33 11.5 44.5t44.5 11.5h424q106 0 150 -44t44 -151v-360q0 -96 -34.5 -140.5t-118.5 -52.5l206 -686h-104q-33 0 -48 11.5t-26 43.5l-190 629h-62q-33 0 -42 11.5t-9 43.5v64h168q63 0 79.5 26.5t16.5 90.5v278q0 63 -16 90t-80 27h-250v-1260 q0 -33 -11 -44t-44 -11h-109z" />
<glyph unicode="S" horiz-adv-x="811" d="M121 119h307q63 0 79.5 26.5t16.5 90.5v331q0 63 -17.5 90t-86.5 27h-105q-106 0 -150 44t-44 151v360q0 106 44 150.5t150 44.5h244q59 0 85 -30t38 -89h-301q-63 0 -79.5 -26.5t-16.5 -90.5v-278q0 -63 16 -90t80 -27h113q106 0 150 -44t44 -151v-413 q0 -106 -44 -150.5t-150 -44.5h-250q-59 0 -85 29.5t-38 89.5z" />
<glyph unicode="T" horiz-adv-x="864" d="M53 1315v63q0 33 11.5 44.5t44.5 11.5h706v-64q0 -33 -11 -44t-44 -11h-246v-1260q0 -33 -11 -44t-44 -11h-109v1315h-297z" />
<glyph unicode="U" horiz-adv-x="1007" d="M145 195v1183q0 33 11.5 44.5t44.5 11.5h108v-1198q0 -63 16.5 -90t80.5 -27h194q63 0 79.5 26.5t16.5 90.5v1142q0 33 11.5 44.5t44.5 11.5h108v-1239q0 -106 -44 -150.5t-150 -44.5h-326q-106 0 -150.5 44t-44.5 151z" />
<glyph unicode="V" horiz-adv-x="927" d="M63 1378q-2 10 -2 18q0 37 43 38h113l219 -1018l29 -228h12l29 228l194 962q8 33 22.5 44.5t47.5 11.5h102l-294 -1379q-8 -33 -21.5 -44t-46.5 -11h-152z" />
<glyph unicode="W" horiz-adv-x="1456" d="M78 1378q-2 10 -2 18q0 37 43 38h110l172 -1000l41 -246h13l49 246l160 586q4 10 15 20.5t28 10.5h110l146 -617l51 -246h12l39 246l156 944q6 33 21 44.5t48 11.5h101l-246 -1379q-8 -33 -21.5 -45t-46.5 -12h-145l-158 643l-35 203h-12l-33 -203l-162 -586 q-8 -33 -21 -44t-46 -11h-137z" />
<glyph unicode="X" horiz-adv-x="894" d="M70 1378q0 33 9 44.5t42 11.5h88l194 -459l39 -152h13l37 152l194 459h88q33 0 42 -11.5t9 -44.5l-284 -665l282 -658q0 -33 -9 -44t-42 -11h-88l-188 459l-43 141h-13l-41 -141l-188 -459h-88q-33 0 -42 11.5t-9 43.5l282 658z" />
<glyph unicode="Y" horiz-adv-x="860" d="M37 1378q-12 33 3 44.5t48 11.5h88l178 -457l78 -242h12l76 242l152 401q10 31 24.5 43.5t48.5 12.5h93l-328 -832v-545q0 -35 -12.5 -46t-44.5 -11h-107v602z" />
<glyph unicode="Z" horiz-adv-x="837" d="M78 55v64l508 1196h-480v63q0 33 9.5 44.5t42.5 11.5h540q33 0 42.5 -11.5t9.5 -44.5v-63l-510 -1196h503v-64q0 -33 -9 -44t-42 -11h-563q-33 0 -42 11.5t-9 43.5z" />
<glyph unicode="[" horiz-adv-x="651" d="M152 -266v1767q0 33 11 44t44 11h366v-63q0 -33 -11 -44t-44 -11h-203v-1585h258v-64q0 -33 -11 -44t-44 -11h-366z" />
<glyph unicode="\" horiz-adv-x="790" d="M91 1545q9 11 42 11h100l467 -1749q10 -33 1 -44t-42 -11h-100l-467 1749q-10 33 -1 44z" />
<glyph unicode="]" horiz-adv-x="651" d="M78 -147h258v1585h-203q-33 0 -44 11t-11 44v63h366q33 0 44.5 -11t11.5 -44v-1767h-367q-33 0 -44 11t-11 44v64z" />
<glyph unicode="^" horiz-adv-x="634" d="M62 1180.5q-8 17.5 6 33.5l149 183q31 37 68 37h121l176 -220q14 -16 6 -33.5t-37 -17.5h-55l-174 172l-174 -172h-49q-29 0 -37 17.5z" />
<glyph unicode="_" horiz-adv-x="921" d="M0 0h866q33 0 44.5 -11.5t11.5 -43.5v-64h-867q-33 0 -44 11.5t-11 44.5v63z" />
<glyph unicode="`" horiz-adv-x="522" d="M147 1384q0 29 10.5 39.5t41.5 10.5h100l117 -240q6 -10 5 -29.5t-38 -19.5h-53z" />
<glyph unicode="a" d="M104 195v225q0 106 44.5 150t150.5 44h174q59 0 85 -29.5t38 -88.5h-231q-63 0 -80 -27t-17 -90v-160q0 -63 23.5 -81.5t87.5 -18.5h135v-64q0 -33 -9 -44t-42 -11h-164q-106 0 -150.5 44t-44.5 151zM145 922q12 59 38 88.5t85 29.5h297q106 0 150.5 -44t44.5 -150v-846 h-109q-33 0 -44 11.5t-11 43.5v750q0 63 -16.5 90t-79.5 27h-355z" />
<glyph unicode="b" horiz-adv-x="940" d="M135 0v1378q0 33 11.5 44.5t43.5 11.5h109v-1315h252q63 0 79.5 26.5t16.5 90.5v569q0 63 -16.5 90t-79.5 27h-170v63q0 33 9 44t42 11h184q106 0 150.5 -44t44.5 -150v-651q0 -106 -44 -150.5t-151 -44.5h-194q-59 0 -85 29.5t-38 89.5v-64q0 -33 -11.5 -44t-43.5 -11 h-109z" />
<glyph unicode="c" horiz-adv-x="727" d="M129 195v651q0 106 44 150t151 44h266q33 0 42 -11t9 -44v-63h-252q-63 0 -79.5 -27t-16.5 -90v-569q0 -63 16.5 -90t79.5 -27h252v-64q0 -33 -9 -44t-42 -11h-266q-106 0 -150.5 44t-44.5 151z" />
<glyph unicode="d" horiz-adv-x="937" d="M129 195v651q0 106 44 150t151 44h194q59 0 85 -29.5t38 -88.5h-252q-63 0 -79.5 -27t-16.5 -90v-569q0 -63 16.5 -90t79.5 -27h170v-64q0 -33 -9 -44t-42 -11h-184q-106 0 -150.5 44t-44.5 151zM641 0v1378q0 33 11.5 44.5t43.5 11.5h109v-1379q0 -33 -11.5 -44 t-43.5 -11h-109z" />
<glyph unicode="e" horiz-adv-x="845" d="M129 195v651q0 106 44 150t151 44h225q106 0 150 -44t44 -150v-230q0 -106 -44 -150t-150 -44h-123q-33 0 -42 11t-9 44v64h119q63 0 79.5 26.5t16.5 89.5v158q0 63 -20.5 85t-84.5 22h-88q-68 0 -86 -24t-18 -93v-569q0 -63 16.5 -90t79.5 -27h295v-64q0 -33 -9 -44 t-42 -11h-309q-106 0 -150.5 44t-44.5 151z" />
<glyph unicode="f" horiz-adv-x="616" d="M135 0v1239q0 106 44 150.5t151 44.5h245q33 0 42.5 -11.5t9.5 -44.5v-63h-232q-31 0 -50 -4t-29.5 -16.5t-13.5 -35t-3 -61.5v-158h201q33 0 42 -11t9 -44v-63h-252v-867q0 -33 -11.5 -44t-43.5 -11h-109z" />
<glyph unicode="g" horiz-adv-x="968" d="M129 195v651q0 106 44 150t151 44h194q59 0 85 -29.5t38 -88.5h-252q-63 0 -79.5 -27t-16.5 -90v-569q0 -63 16.5 -90t79.5 -27h170v-64q0 -33 -9 -44t-42 -11h-184q-106 0 -150.5 44t-44.5 151zM129 -293h416q31 0 50 4t29.5 16.5t13.5 35t3 61.5v1161q0 33 11.5 44 t43.5 11h109v-1257q0 -106 -44 -150.5t-151 -44.5h-430q-33 0 -42 11.5t-9 44.5v63z" />
<glyph unicode="h" horiz-adv-x="942" d="M135 0v1378q0 33 11.5 44.5t43.5 11.5h109v-512q12 59 37.5 88.5t85.5 29.5h194q106 0 150.5 -44t44.5 -150v-791q0 -33 -11.5 -44t-43.5 -11h-109v805q0 63 -16.5 90t-79.5 27h-252v-867q0 -33 -11.5 -44t-43.5 -11h-109z" />
<glyph unicode="i" horiz-adv-x="430" d="M125 1151v109q0 33 11 44t44 11h125v-109q0 -33 -11 -44t-44 -11h-125zM133 0v985q0 33 11.5 44t43.5 11h109v-985q0 -33 -11.5 -44t-43.5 -11h-109z" />
<glyph unicode="j" horiz-adv-x="432" d="M125 1151v109q0 33 11 44t44 11h125v-109q0 -33 -11 -44t-44 -11h-125zM133 -412v1397q0 33 11.5 44t43.5 11h109v-1282q0 -84 -41 -118.5t-123 -51.5z" />
<glyph unicode="k" horiz-adv-x="856" d="M135 0v1378q0 33 11.5 44.5t43.5 11.5h109v-1379q0 -33 -11.5 -44t-43.5 -11h-109zM360 498v131l226 356q16 29 30.5 42t47.5 13h129l-312 -462l332 -578h-141q-33 0 -47.5 13.5t-30.5 41.5z" />
<glyph unicode="l" horiz-adv-x="452" d="M145 0v1378q0 33 11.5 44.5t44.5 11.5h108v-1379q0 -33 -11 -44t-44 -11h-109z" />
<glyph unicode="m" horiz-adv-x="1427" d="M133 0v985q0 33 11.5 44t43.5 11h109v-118q12 59 37.5 88.5t85.5 29.5h182q106 0 150.5 -44t44.5 -150v-791q0 -33 -11.5 -44t-44.5 -11h-108v805q0 63 -16.5 90t-79.5 27h-240v-867q0 -33 -11.5 -44t-43.5 -11h-109zM791 922q12 59 37.5 88.5t84.5 29.5h189 q106 0 150 -44t44 -150v-791q0 -33 -11 -44t-44 -11h-108v805q0 63 -16.5 90t-80.5 27h-245z" />
<glyph unicode="n" horiz-adv-x="940" d="M133 0v985q0 33 11.5 44t43.5 11h109v-118q12 59 37.5 88.5t85.5 29.5h194q106 0 150.5 -44t44.5 -150v-791q0 -33 -11.5 -44t-43.5 -11h-109v805q0 63 -16.5 90t-79.5 27h-252v-867q0 -33 -11.5 -44t-43.5 -11h-109z" />
<glyph unicode="o" horiz-adv-x="933" d="M129 195v651q0 106 44 150t151 44h286q106 0 150.5 -44t44.5 -150v-651q0 -106 -44 -150.5t-151 -44.5h-286q-106 0 -150.5 44t-44.5 151zM293 236q0 -63 16.5 -90t79.5 -27h156q63 0 79.5 26.5t16.5 90.5v569q0 63 -16.5 90t-79.5 27h-156q-63 0 -79.5 -27t-16.5 -90 v-569z" />
<glyph unicode="p" horiz-adv-x="937" d="M133 -412v1397q0 33 11.5 44t43.5 11h109v-921h252q63 0 79.5 26.5t16.5 90.5v569q0 63 -16.5 90t-79.5 27h-170v63q0 33 9 44t42 11h184q106 0 150.5 -44t44.5 -150v-651q0 -106 -44 -150.5t-151 -44.5h-194q-59 0 -85 29.5t-38 89.5v-475q0 -33 -11.5 -44.5 t-43.5 -11.5h-109z" />
<glyph unicode="q" horiz-adv-x="940" d="M129 195v651q0 106 44 150t151 44h194q59 0 85 -29.5t38 -88.5h-252q-63 0 -79.5 -27t-16.5 -90v-569q0 -63 16.5 -90t79.5 -27h170v-64q0 -33 -9 -44t-42 -11h-184q-106 0 -150.5 44t-44.5 151zM641 -412v1397q0 33 11.5 44t43.5 11h109v-1396q0 -33 -11.5 -44.5 t-43.5 -11.5h-109z" />
<glyph unicode="r" horiz-adv-x="634" d="M133 0v985q0 33 11.5 44t43.5 11h109v-118q27 70 55.5 94t87.5 24h80q33 0 42 -11t9 -44v-63h-274v-867q0 -33 -11.5 -44t-43.5 -11h-109z" />
<glyph unicode="s" horiz-adv-x="768" d="M117 55v64h291q63 0 79.5 26.5t16.5 90.5v108q0 63 -16.5 90t-79.5 27h-117q-53 0 -87 8t-53.5 29.5t-26.5 56.5t-7 88v203q0 106 44 150t150 44h275q33 0 42 -11t9 -44v-63h-270q-63 0 -80 -27t-17 -90v-109q0 -37 3 -60.5t13.5 -35.5t30 -16t50.5 -4h116q53 0 87 -8.5 t53.5 -30t26.5 -56t7 -88.5v-202q0 -106 -44 -150.5t-150 -44.5h-295q-33 0 -42 11.5t-9 43.5z" />
<glyph unicode="t" horiz-adv-x="622" d="M135 195v1028q0 33 11.5 44t43.5 11h109v-238h201q33 0 42 -11t9 -44v-63h-252v-686q0 -63 16.5 -90t79.5 -27h178q-4 -59 -23.5 -89t-78.5 -30h-141q-106 0 -150.5 44t-44.5 151z" />
<glyph unicode="u" horiz-adv-x="940" d="M131 195v790q0 33 11.5 44t43.5 11h109v-804q0 -63 16.5 -90t79.5 -27h170v-64q0 -33 -9 -44t-42 -11h-184q-106 0 -150.5 44t-44.5 151zM643 0v985q0 33 11.5 44t43.5 11h109v-985q0 -33 -11.5 -44t-43.5 -11h-109z" />
<glyph unicode="v" horiz-adv-x="868" d="M74 985q-2 10 -2 18q0 37 43 37h92l180 -645l45 -243h12l43 243l168 590q8 33 22.5 44t47.5 11h84l-274 -985q-8 -33 -21.5 -44t-46.5 -11h-123z" />
<glyph unicode="w" horiz-adv-x="1196" d="M61 999q-6 41 31 41h113l137 -901h14l164 619q10 35 45 37h135l162 -656h8l129 860q4 25 15.5 33t36.5 8h96l-164 -989q-4 -25 -14.5 -38t-36.5 -13h-152l-106 426l-60 262h-12l-61 -262l-99 -373q-10 -31 -24.5 -42t-38.5 -11h-143z" />
<glyph unicode="x" horiz-adv-x="829" d="M69 1023.5q3 16.5 40 16.5h100l145 -268l56 -139h12l57 139l135 268h105q37 0 40 -16t-7 -33l-260 -475l264 -467q10 -16 7 -32.5t-40 -16.5h-100l-154 283l-57 141h-13l-53 -141l-131 -283h-104q-37 0 -40 16.5t7 32.5l241 488l-243 454q-10 16 -7 32.5z" />
<glyph unicode="y" horiz-adv-x="868" d="M68 985q-2 10 -2 18q0 37 43 37h92l174 -661l41 -248h12l51 246l178 608q8 33 22.5 44t47.5 11h84l-387 -1396q-10 -33 -23.5 -44.5t-46.5 -11.5h-90l109 412h-54z" />
<glyph unicode="z" horiz-adv-x="753" d="M78 55v64l420 803h-402v63q0 33 9.5 44t41.5 11h453q33 0 42 -11t9 -44v-63l-418 -803h418v-64q0 -33 -9 -44t-42 -11h-471q-33 0 -42 11.5t-9 43.5z" />
<glyph unicode="{" horiz-adv-x="743" d="M45 647q0 33 9 46.5t44 13.5h43q37 0 60.5 3t37 15t17.5 34.5t4 61.5v541q0 106 44 150t151 44h215v-63q0 -33 -9.5 -44t-42.5 -11h-77q-63 0 -90 -27t-27 -90v-479q0 -96 -24.5 -142.5t-90.5 -50.5v-4q66 -4 90.5 -48t24.5 -144v-480q0 -63 26.5 -89.5t90.5 -26.5h77 q33 0 42.5 -11.5t9.5 -44.5v-63h-215q-106 0 -150.5 44t-44.5 150v541q0 41 -5 64.5t-18.5 35t-37 13.5t-60.5 2h-41q-35 -2 -44 12t-9 47z" />
<glyph unicode="|" horiz-adv-x="456" d="M152 -262v1763q0 33 11 44t44 11h100v-1763q0 -33 -11 -44t-44 -11h-100z" />
<glyph unicode="}" horiz-adv-x="743" d="M74 -199q0 33 9 44.5t42 11.5h78q63 0 89.5 26.5t26.5 89.5v480q0 100 25 144t90 48v4q-66 4 -90.5 50t-24.5 143v479q0 63 -26.5 90t-89.5 27h-78q-33 0 -42 11t-9 44v63h215q106 0 150 -44t44 -150v-541q0 -39 4.5 -61.5t17.5 -34.5t36.5 -15t60.5 -3h43q35 0 44 -13.5 t9 -46.5t-9 -47t-44 -12h-41q-37 0 -60.5 -2t-36.5 -13.5t-18.5 -35t-5.5 -64.5v-541q0 -106 -44 -150t-150 -44h-215v63z" />
<glyph unicode="~" horiz-adv-x="935" d="M100 735q0 41 39 78l33 35q74 74 137 74t137 -74l99 -98q25 -25 45 -39.5t41 -14.5q29 0 65 37l107 107q35 -51 35 -92t-39 -78l-33 -35q-78 -74 -137 -74q-63 0 -137 74l-99 98q-25 25 -45 39t-41 14q-29 0 -65 -36l-107 -107q-35 51 -35 92z" />
<glyph unicode="&#xa1;" horiz-adv-x="462" d="M133 813v109h125q33 0 44.5 -11.5t11.5 -43.5v-109h-125q-33 0 -44.5 11.5t-11.5 43.5zM150 -512v1051q0 33 11 44t44 11h109v-1050q0 -33 -11.5 -44.5t-44.5 -11.5h-108z" />
<glyph unicode="&#xa2;" horiz-adv-x="868" d="M145 358v652q0 106 44 150t151 44h37v135q0 33 11 44.5t44 11.5h109v-191h84q59 0 84.5 -29.5t38.5 -89.5h-342q-63 0 -80 -26.5t-17 -89.5v-570q0 -63 16.5 -89.5t80.5 -26.5h342q-12 -59 -38 -89t-85 -30h-84v-109q0 -33 -11.5 -44t-44.5 -11h-108v164h-37 q-106 0 -150.5 44t-44.5 150z" />
<glyph unicode="&#xa3;" horiz-adv-x="907" d="M90 119h191v1120q0 106 44 150.5t150 44.5h195q66 0 92 -30t39 -89h-260q-31 0 -50.5 -4t-29.5 -16.5t-13.5 -35t-3.5 -61.5v-276h222q33 0 42 -11.5t9 -44.5v-63h-273v-684h187q66 0 92.5 -30t38.5 -89h-541q-66 0 -92.5 29.5t-38.5 89.5z" />
<glyph unicode="&#xa4;" horiz-adv-x="1040" d="M111 475l125 125q-14 41 -15 107v245q0 41 6 76l-92 94q-23 23 -22.5 39.5t22.5 38.5l76 76l135 -135q31 6 70 6h200q14 0 27.5 -1t26.5 -3l108 108q23 23 39.5 23t38.5 -23l76 -75l-133 -134q12 -37 12 -90v-245q0 -45 -8 -76l104 -103q23 -23 23 -39t-23 -38l-76 -76 l-143 143q-31 -6 -72 -6h-200q-27 0 -37 2l-115 -115q-23 -23 -39 -22.5t-39 22.5zM385 748q0 -63 26.5 -90t90.5 -27h28q63 0 90 26.5t27 90.5v163q0 63 -26.5 90t-90.5 27h-28q-63 0 -90 -26.5t-27 -90.5v-163z" />
<glyph unicode="&#xa5;" horiz-adv-x="1001" d="M109 430v64h309v106h-254q-33 0 -44 11.5t-11 43.5v64h262l-262 659q-12 33 3 44.5t48 11.5h88l178 -457l78 -242h12l76 242l151 401q10 31 24.5 43.5t49.5 12.5h92l-282 -715h209q33 0 44 -11.5t11 -43.5v-64h-309v-106h252q33 0 44 -11.5t11 -44.5v-63h-307v-318 q0 -35 -12.5 -46t-45.5 -11h-106v375h-254q-33 0 -44 11t-11 44z" />
<glyph unicode="&#xa6;" horiz-adv-x="456" d="M154 293q0 33 11 44t44 11h98v-784q0 -33 -11 -44.5t-44 -11.5h-98v785zM154 717v784q0 33 11 44t44 11h98v-784q0 -33 -11 -44t-44 -11h-98z" />
<glyph unicode="&#xa7;" horiz-adv-x="856" d="M123 598v147q0 82 42 117t122 51v-274q0 -63 16 -90t80 -27h156q106 0 150 -44t44 -150v-131q0 -106 -44 -150.5t-150 -44.5h-232q-59 0 -84.5 29.5t-38.5 89.5h289q63 0 79.5 26.5t16.5 90.5v49q0 63 -16 89.5t-80 26.5h-156q-106 0 -150 44.5t-44 150.5zM123 1108v131 q0 106 44 150.5t150 44.5h232q59 0 84.5 -30t38.5 -89h-289q-63 0 -79.5 -26.5t-16.5 -90.5v-49q0 -63 16 -90t80 -27h156q106 0 150 -44t44 -150v-148q0 -82 -42 -116.5t-122 -51.5v275q0 63 -16 89.5t-80 26.5h-156q-106 0 -150 44t-44 151z" />
<glyph unicode="&#xa8;" horiz-adv-x="700" d="M123 1284v109h125q33 0 44 -11.5t11 -44.5v-108h-125q-33 0 -44 11t-11 44zM397 1284v109h125q33 0 44.5 -11.5t11.5 -44.5v-108h-125q-33 0 -44.5 11t-11.5 44z" />
<glyph unicode="&#xa9;" horiz-adv-x="1380" d="M143 195v1044q0 106 44 150.5t151 44.5h704q106 0 150.5 -44t44.5 -151v-1044q0 -106 -44 -150.5t-151 -44.5h-704q-106 0 -150.5 44t-44.5 151zM307 236q0 -63 16.5 -90t79.5 -27h574q63 0 79.5 26.5t16.5 90.5v962q0 63 -16.5 90t-79.5 27h-574q-63 0 -79.5 -26.5 t-16.5 -90.5v-962zM430 434v570q0 106 44 150t151 44h245q33 0 42.5 -11t9.5 -44v-64h-232q-63 0 -79.5 -26.5t-16.5 -89.5v-488q0 -63 16.5 -90t79.5 -27h232v-63q0 -33 -9.5 -44t-42.5 -11h-245q-106 0 -150.5 44t-44.5 150z" />
<glyph unicode="&#xaa;" horiz-adv-x="806" d="M109 809v125q0 106 44 150t150 44h203v70q0 63 -16.5 90t-79.5 27h-260q12 59 37.5 89t84.5 30h203q106 0 150.5 -44t44.5 -151v-625h-109q-33 0 -44 11.5t-11 44.5v340h-127q-63 0 -90 -27t-27 -90v-43q0 -63 26.5 -90t90.5 -27h45v-63q0 -33 -9 -44.5t-42 -11.5h-70 q-106 0 -150 44t-44 151z" />
<glyph unicode="&#xab;" horiz-adv-x="911" d="M94 598v20l344 340q16 -25 17 -59q0 -45 -23.5 -91t-54.5 -77l-119 -119v-4l117 -119q31 -31 54.5 -76.5t23.5 -90.5q0 -35 -19 -62zM412 598v20l344 340q16 -25 16 -59q0 -45 -23.5 -91t-54.5 -77l-119 -119v-4l117 -119q31 -31 54.5 -76.5t23.5 -90.5q0 -35 -18 -62z " />
<glyph unicode="&#xac;" d="M139 735v64h559q33 0 44.5 -9.5t11.5 -41.5v-281h-109q-33 0 -44 9t-11 42v162h-395q-33 0 -44.5 11t-11.5 44z" />
<glyph unicode="&#xad;" horiz-adv-x="884" d="M135 739v64h559q33 0 44.5 -11.5t11.5 -43.5v-64h-560q-33 0 -44 11.5t-11 43.5z" />
<glyph unicode="&#xae;" horiz-adv-x="1380" d="M143 195v1044q0 106 44 150.5t151 44.5h704q106 0 150.5 -44t44.5 -151v-1044q0 -106 -44 -150.5t-151 -44.5h-704q-106 0 -150.5 44t-44.5 151zM307 236q0 -63 16.5 -90t79.5 -27h574q63 0 79.5 26.5t16.5 90.5v962q0 63 -16.5 90t-79.5 27h-574q-63 0 -79.5 -26.5 t-16.5 -90.5v-962zM420 242v901q0 33 11 44t44 11h287q106 0 150 -44t44 -150v-136q0 -86 -28.5 -131t-93.5 -57l133 -438h-84q-33 0 -48.5 11t-25.5 44l-115 377h-131v-377q0 -33 -11 -44t-44 -11h-88zM563 772h154q63 0 79.5 26.5t16.5 90.5v74q0 63 -16.5 89.5 t-79.5 26.5h-154v-307z" />
<glyph unicode="&#xaf;" horiz-adv-x="921" d="M0 1270v63h866q33 0 44.5 -11.5t11.5 -43.5v-64h-867q-33 0 -44 11.5t-11 44.5z" />
<glyph unicode="&#xb0;" horiz-adv-x="804" d="M92 1151q0 63 24.5 120.5t66.5 99.5t98.5 66.5t119.5 24.5t121 -24.5t100 -66.5t66.5 -99.5t24.5 -120.5t-24.5 -119.5t-66.5 -98.5t-99.5 -66.5t-121.5 -24.5q-63 0 -119.5 24.5t-98.5 66.5t-66.5 98.5t-24.5 119.5zM215 1151q0 -39 14.5 -73t40 -59.5t59 -40.5 t72.5 -15t74 15t60.5 40.5t40 59.5t14.5 73t-14.5 74t-40 60.5t-60.5 40.5t-74 15t-72.5 -15t-59 -40.5t-40 -60.5t-14.5 -74z" />
<glyph unicode="&#xb1;" d="M139 326v63h559q33 0 44.5 -11t11.5 -44v-64h-559q-33 0 -44.5 11.5t-11.5 44.5zM139 739v64h248v190q0 33 11.5 44.5t43.5 11.5h64v-246h192q33 0 44.5 -11.5t11.5 -43.5v-64h-248v-195q0 -33 -11.5 -44t-43.5 -11h-64v250h-192q-33 0 -44.5 11.5t-11.5 43.5z" />
<glyph unicode="&#xb2;" horiz-adv-x="720" d="M115 1315q12 59 37.5 89t85.5 30h161q106 0 150.5 -44t44.5 -151v-117q0 -47 -28.5 -94t-72.5 -96t-96.5 -98.5t-97.5 -100.5h295v-63q0 -33 -11.5 -44.5t-43.5 -11.5h-422v119q104 117 166.5 177.5t94.5 95t42 61.5t10 76v55q0 63 -16.5 90t-79.5 27h-219z" />
<glyph unicode="&#xb3;" horiz-adv-x="708" d="M109 733h219q63 0 79.5 35t16.5 92q0 100 -22.5 127t-94.5 27h-96v63q0 33 11 44.5t44 11.5h76q39 2 60.5 18t25.5 76q-4 49 -20.5 68.5t-79.5 19.5h-219q12 59 37.5 89t84.5 30h162q106 0 150.5 -45.5t44.5 -139.5q0 -80 -26.5 -115.5t-86.5 -48.5v-4q57 -16 85 -60 t28 -124q0 -84 -10.5 -138t-34 -87t-60.5 -45.5t-90 -12.5h-162q-59 0 -84.5 30t-37.5 89z" />
<glyph unicode="&#xb4;" horiz-adv-x="522" d="M97 1164.5q-1 19.5 5 29.5l117 240h109q31 0 41 -10.5t10 -39.5l-191 -239h-53q-37 0 -38 19.5z" />
<glyph unicode="&#xb5;" horiz-adv-x="872" d="M150 -412v1278q0 33 11 44.5t44 11.5h108v-711q2 -49 20.5 -70.5t76.5 -21.5h96v-64q0 -33 -9.5 -44t-41.5 -11h-111h-31v-356q0 -33 -11 -44.5t-44 -11.5h-108zM588 0v866q0 33 11 44.5t44 11.5h109v-867q0 -33 -11.5 -44t-44.5 -11h-108z" />
<glyph unicode="&#xb6;" horiz-adv-x="950" d="M104 961v278q0 106 44.5 150.5t150.5 44.5h164q33 0 44 -11.5t11 -44.5v-1378h-108q-33 0 -44.5 11.5t-11.5 43.5v711h-55q-106 0 -150.5 44t-44.5 151zM633 0v1378q0 33 11 44.5t44 11.5h109v-1379q0 -33 -11.5 -44t-44.5 -11h-108z" />
<glyph unicode="&#xb7;" horiz-adv-x="495" d="M119 621q0 78 38 108.5t91 30.5t91 -31t38 -108q0 -78 -38 -109t-91 -31t-91 31t-38 109z" />
<glyph unicode="&#xb8;" horiz-adv-x="514" d="M209 8q0 33 11 44t44 11h64v-213q0 -33 -11.5 -44t-44.5 -11h-63v213z" />
<glyph unicode="&#xb9;" horiz-adv-x="440" d="M137 614v650q0 84 41 118.5t123 51.5v-764q0 -33 -11 -44.5t-44 -11.5h-109z" />
<glyph unicode="&#xba;" horiz-adv-x="815" d="M127 809v430q0 106 44 150.5t151 44.5h172q106 0 150 -44t44 -151v-430q0 -106 -44 -150.5t-150 -44.5h-172q-106 0 -150.5 44t-44.5 151zM291 850q0 -63 16.5 -90t79.5 -27h41q63 0 79.5 26.5t16.5 90.5v348q0 63 -16 90t-80 27h-41q-63 0 -79.5 -26.5t-16.5 -90.5v-348 z" />
<glyph unicode="&#xbb;" horiz-adv-x="911" d="M137 899q0 35 17 59l344 -340v-20l-340 -338q-18 27 -19 62q0 45 23.5 91t54.5 76l117 119v4l-119 119q-31 31 -54.5 77t-23.5 91zM455 899q0 35 16 59l344 -340v-20l-340 -338q-18 27 -18 62q0 45 23.5 91t54.5 76l116 119v4l-119 119q-31 31 -54 77t-23 91z" />
<glyph unicode="&#xbc;" horiz-adv-x="1402" d="M137 614v650q0 84 41 118.5t123 51.5v-764q0 -33 -11 -44.5t-44 -11.5h-109zM168 0l686 1407q16 33 32.5 44t49.5 11h108l-686 -1407q-16 -33 -32.5 -44t-49.5 -11h-108zM746 215v64l248 541h186v-541h131q-12 -59 -38.5 -89t-92.5 -30v-102q0 -33 -11 -44.5t-44 -11.5 h-99v158h-225q-33 0 -44 11.5t-11 43.5zM877 279h149v317h-4z" />
<glyph unicode="&#xbd;" horiz-adv-x="1394" d="M131 614v650q0 84 41 118.5t123 51.5v-764q0 -33 -11 -44.5t-44 -11.5h-109zM158 0l686 1407q16 33 32.5 44t49.5 11h108l-686 -1407q-16 -33 -32.5 -44t-49.5 -11h-108zM809 703q12 59 37.5 89t85.5 30h161q106 0 150.5 -44t44.5 -151v-117q0 -47 -28.5 -94t-72.5 -96 t-96.5 -98.5t-97.5 -100.5h295v-63q0 -33 -11.5 -44.5t-43.5 -11.5h-422v119q104 117 166.5 177.5t94.5 95t42 61.5t10 76v55q0 63 -16.5 90t-79.5 27h-219z" />
<glyph unicode="&#xbe;" horiz-adv-x="1656" d="M111 733h219q63 0 79.5 35t16.5 92q0 100 -22.5 127t-94.5 27h-96v63q0 33 11 44.5t44 11.5h76q39 2 60.5 18t25.5 76q-4 49 -20.5 68.5t-79.5 19.5h-219q12 59 37.5 89t84.5 30h162q106 0 150.5 -45.5t44.5 -139.5q0 -80 -26.5 -115.5t-86.5 -48.5v-4q57 -16 85 -60 t28 -124q0 -84 -10.5 -138t-34 -87t-60.5 -45.5t-90 -12.5h-162q-59 0 -84.5 30t-37.5 89zM422 0l686 1407q16 33 32.5 44t49.5 11h108l-686 -1407q-16 -33 -32.5 -44t-49.5 -11h-108zM1000 215v64l248 541h186v-541h131q-12 -59 -38.5 -89t-92.5 -30v-102q0 -33 -11 -44.5 t-44 -11.5h-99v158h-225q-33 0 -44 11.5t-11 43.5zM1131 279h149v317h-4z" />
<glyph unicode="&#xbf;" horiz-adv-x="776" d="M108 9q0 106 44 150t151 44h14q63 0 80 26.5t17 90.5v229q0 33 11 44.5t44 11.5h108v-326q0 -106 -44 -150.5t-150 -44.5h-15q-63 0 -79.5 -26.5t-16.5 -89.5v-242q0 -63 16.5 -90t79.5 -27h306q-12 -59 -38 -89t-85 -30h-248q-106 0 -150.5 44t-44.5 151v324zM397 815 v109h125q33 0 44 -11.5t11 -43.5v-109h-125q-33 0 -44 11.5t-11 43.5z" />
<glyph unicode="&#xc0;" horiz-adv-x="976" d="M147 0v1239q0 106 44.5 150.5t150.5 44.5h295q106 0 150 -44t44 -151v-1184q0 -33 -11 -44t-44 -11h-108v1198q0 59 -15.5 86t-68.5 31h-189q-55 -4 -69.5 -31t-14.5 -86v-395h275v-64q0 -33 -9.5 -44t-41.5 -11h-224v-629q0 -33 -11 -44t-44 -11h-109zM278 1736 q0 29 10.5 39.5t41.5 10.5h100l117 -240q6 -10 5 -29.5t-38 -19.5h-53z" />
<glyph unicode="&#xc1;" horiz-adv-x="976" d="M147 0v1239q0 106 44.5 150.5t150.5 44.5h295q106 0 150 -44t44 -151v-1184q0 -33 -11 -44t-44 -11h-108v1198q0 59 -15.5 86t-68.5 31h-189q-55 -4 -69.5 -31t-14.5 -86v-395h275v-64q0 -33 -9.5 -44t-41.5 -11h-224v-629q0 -33 -11 -44t-44 -11h-109zM464 1516.5 q-1 19.5 5 29.5l117 240h109q31 0 41 -10.5t10 -39.5l-191 -239h-53q-37 0 -38 19.5z" />
<glyph unicode="&#xc2;" horiz-adv-x="976" d="M147 0v1239q0 106 44.5 150.5t150.5 44.5h295q106 0 150 -44t44 -151v-1184q0 -33 -11 -44t-44 -11h-108v1198q0 59 -15.5 86t-68.5 31h-189q-55 -4 -69.5 -31t-14.5 -86v-395h275v-64q0 -33 -9.5 -44t-41.5 -11h-224v-629q0 -33 -11 -44t-44 -11h-109zM246 1532.5 q-8 17.5 6 33.5l149 183q31 37 68 37h121l176 -220q14 -16 6 -33.5t-37 -17.5h-55l-174 172l-174 -172h-49q-29 0 -37 17.5z" />
<glyph unicode="&#xc3;" horiz-adv-x="976" d="M147 0v1239q0 106 44.5 150.5t150.5 44.5h295q106 0 150 -44t44 -151v-1184q0 -33 -11 -44t-44 -11h-108v1198q0 59 -15.5 86t-68.5 31h-189q-55 -4 -69.5 -31t-14.5 -86v-395h275v-64q0 -33 -9.5 -44t-41.5 -11h-224v-629q0 -33 -11 -44t-44 -11h-109zM252 1548v33 q0 63 9.5 103t27.5 63.5t45 34t64 10.5q43 0 74.5 -20.5t57 -45t51 -45t56.5 -20.5q20 0 39 5t19 27v52q0 29 13 35t36 6h41v-33q0 -63 -9.5 -103.5t-28 -64t-46 -32.5t-64.5 -9q-43 0 -73.5 20.5t-57.5 44t-51.5 44t-54.5 20.5q-57 0 -58 -33v-51q0 -29 -13 -35t-36 -6h-41 z" />
<glyph unicode="&#xc4;" horiz-adv-x="976" d="M147 0v1239q0 106 44.5 150.5t150.5 44.5h295q106 0 150 -44t44 -151v-1184q0 -33 -11 -44t-44 -11h-108v1198q0 59 -15.5 86t-68.5 31h-189q-55 -4 -69.5 -31t-14.5 -86v-395h275v-64q0 -33 -9.5 -44t-41.5 -11h-224v-629q0 -33 -11 -44t-44 -11h-109zM270 1636v109h125 q33 0 44 -11.5t11 -44.5v-108h-125q-33 0 -44 11t-11 44zM544 1636v109h125q33 0 44.5 -11.5t11.5 -44.5v-108h-125q-33 0 -44.5 11t-11.5 44z" />
<glyph unicode="&#xc5;" horiz-adv-x="976" d="M147 0v1239q0 106 44.5 150.5t150.5 44.5h295q106 0 150 -44t44 -151v-1184q0 -33 -11 -44t-44 -11h-108v1198q0 59 -15.5 86t-68.5 31h-189q-55 -4 -69.5 -31t-14.5 -86v-395h275v-64q0 -33 -9.5 -44t-41.5 -11h-224v-629q0 -33 -11 -44t-44 -11h-109zM330 1636v80 q0 76 31.5 101.5t109.5 25.5h64q78 0 109.5 -25.5t31.5 -101.5v-80q0 -76 -31.5 -101.5t-109.5 -25.5h-64q-78 0 -109.5 25.5t-31.5 101.5zM428 1667q0 -31 2 -47.5t10.5 -24.5t23.5 -10t40 -2q49 0 61.5 12t12.5 72v18q0 31 -2 47.5t-10.5 24.5t-24 10t-39.5 2 q-49 0 -61.5 -12t-12.5 -72v-18z" />
<glyph unicode="&#xc6;" horiz-adv-x="1316" d="M147 0v1239q0 106 44.5 150.5t150.5 44.5h881v-64q0 -33 -9.5 -44t-42.5 -11h-340v-512h330v-64q0 -33 -9 -44t-42 -11h-279v-565h392v-64q0 -33 -11.5 -44t-44.5 -11h-499v1315h-273q-55 -4 -69.5 -31t-14.5 -86v-395h275v-64q0 -33 -9.5 -44t-41.5 -11h-224v-629 q0 -33 -11 -44t-44 -11h-109z" />
<glyph unicode="&#xc7;" horiz-adv-x="798" d="M143 195v1044q0 106 44 150.5t151 44.5h264q59 0 85 -30t38 -89h-322q-63 0 -79.5 -26.5t-16.5 -90.5v-962q0 -63 16.5 -90t79.5 -27h322v-64q0 -33 -9 -44t-42 -11h-162v-150q0 -33 -11.5 -44t-43.5 -11h-64v205h-55q-106 0 -150.5 44t-44.5 151z" />
<glyph unicode="&#xc8;" horiz-adv-x="796" d="M147 0v1378q0 33 11.5 44.5t44.5 11.5h499v-64q0 -33 -9 -44t-42 -11h-340v-512h330v-64q0 -33 -9 -44t-42 -11h-279v-565h391v-64q0 -33 -11 -44t-44 -11h-500zM217 1794q0 29 10.5 39.5t41.5 10.5h100l117 -240q6 -10 5 -29.5t-38 -19.5h-53z" />
<glyph unicode="&#xc9;" horiz-adv-x="796" d="M147 0v1378q0 33 11.5 44.5t44.5 11.5h499v-64q0 -33 -9 -44t-42 -11h-340v-512h330v-64q0 -33 -9 -44t-42 -11h-279v-565h391v-64q0 -33 -11 -44t-44 -11h-500zM402 1574.5q-1 19.5 5 29.5l117 240h109q31 0 41 -10.5t10 -39.5l-191 -239h-53q-37 0 -38 19.5z" />
<glyph unicode="&#xca;" horiz-adv-x="796" d="M147 0v1378q0 33 11.5 44.5t44.5 11.5h499v-64q0 -33 -9 -44t-42 -11h-340v-512h330v-64q0 -33 -9 -44t-42 -11h-279v-565h391v-64q0 -33 -11 -44t-44 -11h-500zM185 1590.5q-8 17.5 6 33.5l149 183q31 37 68 37h121l176 -220q14 -16 6 -33.5t-37 -17.5h-55l-174 172 l-174 -172h-49q-29 0 -37 17.5z" />
<glyph unicode="&#xcb;" horiz-adv-x="796" d="M147 0v1378q0 33 11.5 44.5t44.5 11.5h499v-64q0 -33 -9 -44t-42 -11h-340v-512h330v-64q0 -33 -9 -44t-42 -11h-279v-565h391v-64q0 -33 -11 -44t-44 -11h-500zM209 1694v109h125q33 0 44 -11.5t11 -44.5v-108h-125q-33 0 -44 11t-11 44zM483 1694v109h125 q33 0 44.5 -11.5t11.5 -44.5v-108h-125q-33 0 -44.5 11t-11.5 44z" />
<glyph unicode="&#xcc;" horiz-adv-x="458" d="M20 1794q0 29 10.5 39.5t41.5 10.5h100l117 -240q6 -10 5 -29.5t-38 -19.5h-53zM147 0v1378q0 33 11.5 44.5t44.5 11.5h108v-1379q0 -33 -11 -44t-44 -11h-109z" />
<glyph unicode="&#xcd;" horiz-adv-x="458" d="M147 0v1378q0 33 11.5 44.5t44.5 11.5h108v-1379q0 -33 -11 -44t-44 -11h-109zM201 1574.5q-1 19.5 5 29.5l117 240h109q31 0 41 -10.5t10 -39.5l-191 -239h-53q-37 0 -38 19.5z" />
<glyph unicode="&#xce;" horiz-adv-x="458" d="M-12 1590.5q-8 17.5 6 33.5l149 183q31 37 68 37h121l176 -220q14 -16 6 -33.5t-37 -17.5h-55l-174 172l-174 -172h-49q-29 0 -37 17.5zM147 0v1378q0 33 11.5 44.5t44.5 11.5h108v-1379q0 -33 -11 -44t-44 -11h-109z" />
<glyph unicode="&#xcf;" horiz-adv-x="458" d="M12 1694v109h125q33 0 44 -11.5t11 -44.5v-108h-125q-33 0 -44 11t-11 44zM147 0v1378q0 33 11.5 44.5t44.5 11.5h108v-1379q0 -33 -11 -44t-44 -11h-109zM286 1694v109h125q33 0 44.5 -11.5t11.5 -44.5v-108h-125q-33 0 -44.5 11t-11.5 44z" />
<glyph unicode="&#xd0;" horiz-adv-x="1024" d="M33 684v64q0 33 11 44t44 11h68v575q0 33 11 44.5t44 11.5h475q106 0 150.5 -44t44.5 -151v-1044q0 -106 -44 -150.5t-151 -44.5h-530v684h-123zM319 119h302q63 0 79.5 26.5t16.5 90.5v962q0 63 -16.5 90t-79.5 27h-302v-512h254q-12 -59 -38.5 -89t-92.5 -30h-123v-565 z" />
<glyph unicode="&#xd1;" horiz-adv-x="1044" d="M147 0v1378q0 33 11.5 44.5t44.5 11.5h110l379 -877l113 -305h12l-33 311v815q0 33 11.5 44.5t44.5 11.5h108v-1379q0 -33 -11 -44t-44 -11h-107l-378 860l-115 330h-12l30 -287v-848q0 -33 -11 -44t-44 -11h-109zM280 1606v33q0 63 9.5 103t27.5 63.5t45 34t64 10.5 q43 0 74.5 -20.5t57 -45t51 -45t56.5 -20.5q20 0 39 5t19 27v52q0 29 13 35t36 6h41v-33q0 -63 -9.5 -103.5t-28 -64t-46 -32.5t-64.5 -9q-43 0 -73.5 20.5t-57.5 44t-51.5 44t-54.5 20.5q-57 0 -58 -33v-51q0 -29 -13 -35t-36 -6h-41z" />
<glyph unicode="&#xd2;" horiz-adv-x="991" d="M143 195v1044q0 106 44 150.5t151 44.5h315q106 0 150.5 -44t44.5 -151v-1044q0 -106 -44 -150.5t-151 -44.5h-315q-106 0 -150.5 44t-44.5 151zM270 1792q0 29 10.5 39.5t41.5 10.5h100l117 -240q6 -10 5 -29.5t-38 -19.5h-53zM307 236q0 -63 16.5 -90t79.5 -27h185 q63 0 79.5 26.5t16.5 90.5v962q0 63 -16.5 90t-79.5 27h-185q-63 0 -79.5 -26.5t-16.5 -90.5v-962z" />
<glyph unicode="&#xd3;" horiz-adv-x="991" d="M143 195v1044q0 106 44 150.5t151 44.5h315q106 0 150.5 -44t44.5 -151v-1044q0 -106 -44 -150.5t-151 -44.5h-315q-106 0 -150.5 44t-44.5 151zM307 236q0 -63 16.5 -90t79.5 -27h185q63 0 79.5 26.5t16.5 90.5v962q0 63 -16.5 90t-79.5 27h-185q-63 0 -79.5 -26.5 t-16.5 -90.5v-962zM435 1572.5q-1 19.5 5 29.5l117 240h109q31 0 41 -10.5t10 -39.5l-191 -239h-53q-37 0 -38 19.5z" />
<glyph unicode="&#xd4;" horiz-adv-x="991" d="M143 195v1044q0 106 44 150.5t151 44.5h315q106 0 150.5 -44t44.5 -151v-1044q0 -106 -44 -150.5t-151 -44.5h-315q-106 0 -150.5 44t-44.5 151zM242 1588.5q-8 17.5 6 33.5l149 183q31 37 68 37h121l176 -220q14 -16 6 -33.5t-37 -17.5h-55l-174 172l-174 -172h-49 q-29 0 -37 17.5zM307 236q0 -63 16.5 -90t79.5 -27h185q63 0 79.5 26.5t16.5 90.5v962q0 63 -16.5 90t-79.5 27h-185q-63 0 -79.5 -26.5t-16.5 -90.5v-962z" />
<glyph unicode="&#xd5;" horiz-adv-x="991" d="M143 195v1044q0 106 44 150.5t151 44.5h315q106 0 150.5 -44t44.5 -151v-1044q0 -106 -44 -150.5t-151 -44.5h-315q-106 0 -150.5 44t-44.5 151zM244 1604v33q0 63 9.5 103t27.5 63.5t45 34t64 10.5q43 0 74.5 -20.5t57 -45t51 -45t56.5 -20.5q20 0 39 5t19 27v52 q0 29 13 35t36 6h41v-33q0 -63 -9.5 -103.5t-28 -64t-46 -32.5t-64.5 -9q-43 0 -73.5 20.5t-57.5 44t-51.5 44t-54.5 20.5q-57 0 -58 -33v-51q0 -29 -13 -35t-36 -6h-41zM307 236q0 -63 16.5 -90t79.5 -27h185q63 0 79.5 26.5t16.5 90.5v962q0 63 -16.5 90t-79.5 27h-185 q-63 0 -79.5 -26.5t-16.5 -90.5v-962z" />
<glyph unicode="&#xd6;" horiz-adv-x="991" d="M143 195v1044q0 106 44 150.5t151 44.5h315q106 0 150.5 -44t44.5 -151v-1044q0 -106 -44 -150.5t-151 -44.5h-315q-106 0 -150.5 44t-44.5 151zM262 1692v109h125q33 0 44 -11.5t11 -44.5v-108h-125q-33 0 -44 11t-11 44zM307 236q0 -63 16.5 -90t79.5 -27h185 q63 0 79.5 26.5t16.5 90.5v962q0 63 -16.5 90t-79.5 27h-185q-63 0 -79.5 -26.5t-16.5 -90.5v-962zM536 1692v109h125q33 0 44.5 -11.5t11.5 -44.5v-108h-125q-33 0 -44.5 11t-11.5 44z" />
<glyph unicode="&#xd7;" d="M188 567l174 174l-133 136q-23 23 -22.5 40t22.5 39l43 45l174 -176l138 138q23 23 39 22.5t39 -22.5l45 -45l-177 -177l138 -135q23 -23 22.5 -40t-22.5 -40l-43 -45l-179 176l-135 -135q-23 -23 -39 -22.5t-39 22.5z" />
<glyph unicode="&#xd8;" horiz-adv-x="1060" d="M-12 20l209 316v903q0 106 44 150.5t150 44.5h316q80 0 123.5 -25t60.5 -84l8 12q20 33 38.5 44.5t51.5 11.5h76l-164 -248v-950q0 -106 -44 -150.5t-150 -44.5h-316q-94 0 -138 34t-54 113l-47 -71q-20 -33 -39 -44.5t-50 -11.5h-75zM360 236q0 -63 16.5 -90t80.5 -27 h184q63 0 79.5 26.5t16.5 90.5v702l-377 -567v-135zM360 563l377 572v63q0 63 -16 90t-80 27h-184q-63 0 -80 -26.5t-17 -90.5v-635z" />
<glyph unicode="&#xd9;" horiz-adv-x="946" d="M118 195v1183q0 33 11.5 44.5t44.5 11.5h108v-1198q0 -63 16.5 -90t80.5 -27h194q63 0 79.5 26.5t16.5 90.5v1142q0 33 11.5 44.5t44.5 11.5h108v-1239q0 -106 -44 -150.5t-150 -44.5h-326q-106 0 -150.5 44t-44.5 151zM256 1794q0 29 10.5 39.5t41.5 10.5h100l117 -240 q6 -10 5 -29.5t-38 -19.5h-53z" />
<glyph unicode="&#xda;" horiz-adv-x="946" d="M118 195v1183q0 33 11.5 44.5t44.5 11.5h108v-1198q0 -63 16.5 -90t80.5 -27h194q63 0 79.5 26.5t16.5 90.5v1142q0 33 11.5 44.5t44.5 11.5h108v-1239q0 -106 -44 -150.5t-150 -44.5h-326q-106 0 -150.5 44t-44.5 151zM423 1574.5q-1 19.5 5 29.5l117 240h109 q31 0 41 -10.5t10 -39.5l-191 -239h-53q-37 0 -38 19.5z" />
<glyph unicode="&#xdb;" horiz-adv-x="946" d="M118 195v1183q0 33 11.5 44.5t44.5 11.5h108v-1198q0 -63 16.5 -90t80.5 -27h194q63 0 79.5 26.5t16.5 90.5v1142q0 33 11.5 44.5t44.5 11.5h108v-1239q0 -106 -44 -150.5t-150 -44.5h-326q-106 0 -150.5 44t-44.5 151zM219 1590.5q-8 17.5 6 33.5l149 183q31 37 68 37 h121l176 -220q14 -16 6 -33.5t-37 -17.5h-55l-174 172l-174 -172h-49q-29 0 -37 17.5z" />
<glyph unicode="&#xdc;" horiz-adv-x="946" d="M118 195v1183q0 33 11.5 44.5t44.5 11.5h108v-1198q0 -63 16.5 -90t80.5 -27h194q63 0 79.5 26.5t16.5 90.5v1142q0 33 11.5 44.5t44.5 11.5h108v-1239q0 -106 -44 -150.5t-150 -44.5h-326q-106 0 -150.5 44t-44.5 151zM246 1694v109h125q33 0 44 -11.5t11 -44.5v-108 h-125q-33 0 -44 11t-11 44zM520 1694v109h125q33 0 44.5 -11.5t11.5 -44.5v-108h-125q-33 0 -44.5 11t-11.5 44z" />
<glyph unicode="&#xdd;" horiz-adv-x="839" d="M31 1378q-12 33 3 44.5t48 11.5h88l178 -457l78 -242h12l76 242l152 401q10 31 24.5 43.5t48.5 12.5h93l-328 -832v-545q0 -35 -12.5 -46t-44.5 -11h-107v602zM345 1557.5q-1 19.5 5 29.5l117 240h109q31 0 41 -10.5t10 -39.5l-191 -239h-53q-37 0 -38 19.5z" />
<glyph unicode="&#xde;" horiz-adv-x="933" d="M147 0v1378q0 33 11.5 44.5t44.5 11.5h108v-426q12 59 38 88.5t85 29.5h203q106 0 150 -44t44 -150v-430q0 -106 -44 -150.5t-150 -44.5h-326v-252q0 -33 -11 -44t-44 -11h-109zM311 426h260q63 0 80 26.5t17 90.5v348q0 63 -16.5 90t-80.5 27h-260v-582z" />
<glyph unicode="&#xdf;" horiz-adv-x="1030" d="M45 858v64h180v456q0 33 11.5 44.5t44.5 11.5h426q106 0 150 -44t44 -151v-180q0 -84 -26.5 -128t-86.5 -59q59 -16 86 -60t27 -126v-491q0 -106 -44 -150.5t-150 -44.5h-185q-33 0 -42 11.5t-9 43.5v64h170q63 0 79.5 26.5t16.5 90.5v450q0 63 -16 90t-80 27h-252v-1260 q0 -33 -11 -44t-44 -11h-109v1315h-129q-33 0 -42 11t-9 44zM389 922h252q63 0 79.5 26.5t16.5 89.5v160q0 63 -16 90t-80 27h-252v-393z" />
<glyph unicode="&#xe0;" d="M104 195v225q0 106 44.5 150t150.5 44h174q59 0 85 -29.5t38 -88.5h-231q-63 0 -80 -27t-17 -90v-160q0 -63 23.5 -81.5t87.5 -18.5h135v-64q0 -33 -9 -44t-42 -11h-164q-106 0 -150.5 44t-44.5 151zM145 922q12 59 38 88.5t85 29.5h297q106 0 150.5 -44t44.5 -150v-846 h-109q-33 0 -44 11.5t-11 43.5v750q0 63 -16.5 90t-79.5 27h-355zM237 1384q0 29 10.5 39.5t41.5 10.5h100l117 -240q6 -10 5 -29.5t-38 -19.5h-53z" />
<glyph unicode="&#xe1;" d="M104 195v225q0 106 44.5 150t150.5 44h174q59 0 85 -29.5t38 -88.5h-231q-63 0 -80 -27t-17 -90v-160q0 -63 23.5 -81.5t87.5 -18.5h135v-64q0 -33 -9 -44t-42 -11h-164q-106 0 -150.5 44t-44.5 151zM145 922q12 59 38 88.5t85 29.5h297q106 0 150.5 -44t44.5 -150v-846 h-109q-33 0 -44 11.5t-11 43.5v750q0 63 -16.5 90t-79.5 27h-355zM402 1164.5q-1 19.5 5 29.5l117 240h109q31 0 41 -10.5t10 -39.5l-191 -239h-53q-37 0 -38 19.5z" />
<glyph unicode="&#xe2;" d="M104 195v225q0 106 44.5 150t150.5 44h174q59 0 85 -29.5t38 -88.5h-231q-63 0 -80 -27t-17 -90v-160q0 -63 23.5 -81.5t87.5 -18.5h135v-64q0 -33 -9 -44t-42 -11h-164q-106 0 -150.5 44t-44.5 151zM145 922q12 59 38 88.5t85 29.5h297q106 0 150.5 -44t44.5 -150v-846 h-109q-33 0 -44 11.5t-11 43.5v750q0 63 -16.5 90t-79.5 27h-355zM185 1180.5q-8 17.5 6 33.5l149 183q31 37 68 37h121l176 -220q14 -16 6 -33.5t-37 -17.5h-55l-174 172l-174 -172h-49q-29 0 -37 17.5z" />
<glyph unicode="&#xe3;" d="M104 195v225q0 106 44.5 150t150.5 44h174q59 0 85 -29.5t38 -88.5h-231q-63 0 -80 -27t-17 -90v-160q0 -63 23.5 -81.5t87.5 -18.5h135v-64q0 -33 -9 -44t-42 -11h-164q-106 0 -150.5 44t-44.5 151zM145 922q12 59 38 88.5t85 29.5h297q106 0 150.5 -44t44.5 -150v-846 h-109q-33 0 -44 11.5t-11 43.5v750q0 63 -16.5 90t-79.5 27h-355zM190 1196v33q0 63 9.5 103t27.5 63.5t45 34t64 10.5q43 0 74.5 -20.5t57 -45t51 -45t56.5 -20.5q20 0 39 5t19 27v52q0 29 13 35t36 6h41v-33q0 -63 -9.5 -103.5t-28 -64t-46 -32.5t-64.5 -9 q-43 0 -73.5 20.5t-57.5 44t-51.5 44t-54.5 20.5q-57 0 -58 -33v-51q0 -29 -13 -35t-36 -6h-41z" />
<glyph unicode="&#xe4;" d="M104 195v225q0 106 44.5 150t150.5 44h174q59 0 85 -29.5t38 -88.5h-231q-63 0 -80 -27t-17 -90v-160q0 -63 23.5 -81.5t87.5 -18.5h135v-64q0 -33 -9 -44t-42 -11h-164q-106 0 -150.5 44t-44.5 151zM145 922q12 59 38 88.5t85 29.5h297q106 0 150.5 -44t44.5 -150v-846 h-109q-33 0 -44 11.5t-11 43.5v750q0 63 -16.5 90t-79.5 27h-355zM209 1284v109h125q33 0 44 -11.5t11 -44.5v-108h-125q-33 0 -44 11t-11 44zM483 1284v109h125q33 0 44.5 -11.5t11.5 -44.5v-108h-125q-33 0 -44.5 11t-11.5 44z" />
<glyph unicode="&#xe5;" d="M104 195v225q0 106 44.5 150t150.5 44h174q59 0 85 -29.5t38 -88.5h-231q-63 0 -80 -27t-17 -90v-160q0 -63 23.5 -81.5t87.5 -18.5h135v-64q0 -33 -9 -44t-42 -11h-164q-106 0 -150.5 44t-44.5 151zM145 922q12 59 38 88.5t85 29.5h297q106 0 150.5 -44t44.5 -150v-846 h-109q-33 0 -44 11.5t-11 43.5v750q0 63 -16.5 90t-79.5 27h-355zM309 1284v80q0 76 31.5 101.5t109.5 25.5h64q78 0 109.5 -25.5t31.5 -101.5v-80q0 -76 -31.5 -101.5t-109.5 -25.5h-64q-78 0 -109.5 25.5t-31.5 101.5zM407 1315q0 -31 2 -47.5t10.5 -24.5t23.5 -10t40 -2 q49 0 61.5 12t12.5 72v18q0 31 -2 47.5t-10.5 24.5t-24 10t-39.5 2q-49 0 -61.5 -12t-12.5 -72v-18z" />
<glyph unicode="&#xe6;" horiz-adv-x="1374" d="M104 195v225q0 106 44.5 150t150.5 44h195q59 0 84.5 -29.5t37.5 -88.5h-231q-63 0 -90 -27t-27 -90v-143q0 -63 27 -90t90 -27h231q-12 -59 -37.5 -89t-84.5 -30h-195q-106 0 -150.5 44t-44.5 151zM145 922q6 29 28 51t51.5 37.5t62 22.5t63.5 7h236q70 0 112 -18 q43 18 113 18h225q106 0 150.5 -44t44.5 -150v-230q0 -106 -44 -150t-151 -44h-123q-33 0 -42 11t-9 44v64h119q63 0 79.5 26.5t16.5 89.5v158q0 63 -20.5 85t-83.5 22h-88q-68 0 -86 -25q-16 -20 -19 -74v-587q0 -63 16.5 -90t80.5 -27h294v-64q0 -33 -9 -44t-42 -11h-309 q-106 0 -150.5 44t-44.5 151v628q-2 49 -16 72q-16 27 -80 27h-375z" />
<glyph unicode="&#xe7;" horiz-adv-x="727" d="M129 195v651q0 106 44 150t151 44h266q33 0 42 -11t9 -44v-63h-252q-63 0 -79.5 -27t-16.5 -90v-569q0 -63 16.5 -90t79.5 -27h252v-64q0 -33 -9 -44t-42 -11h-115v-150q0 -33 -11 -44t-44 -11h-64v205h-32q-106 0 -150.5 44t-44.5 151z" />
<glyph unicode="&#xe8;" horiz-adv-x="886" d="M129 195v651q0 106 44 150t151 44h225q106 0 150 -44t44 -150v-230q0 -106 -44 -150t-150 -44h-123q-33 0 -42 11t-9 44v64h119q63 0 79.5 26.5t16.5 89.5v158q0 63 -20.5 85t-84.5 22h-88q-68 0 -86 -24t-18 -93v-569q0 -63 16.5 -90t79.5 -27h295v-64q0 -33 -9 -44 t-42 -11h-309q-106 0 -150.5 44t-44.5 151zM243 1384q0 29 10.5 39.5t41.5 10.5h100l117 -240q6 -10 5 -29.5t-38 -19.5h-53z" />
<glyph unicode="&#xe9;" horiz-adv-x="886" d="M129 195v651q0 106 44 150t151 44h225q106 0 150 -44t44 -150v-230q0 -106 -44 -150t-150 -44h-123q-33 0 -42 11t-9 44v64h119q63 0 79.5 26.5t16.5 89.5v158q0 63 -20.5 85t-84.5 22h-88q-68 0 -86 -24t-18 -93v-569q0 -63 16.5 -90t79.5 -27h295v-64q0 -33 -9 -44 t-42 -11h-309q-106 0 -150.5 44t-44.5 151zM414 1164.5q-1 19.5 5 29.5l117 240h109q31 0 41 -10.5t10 -39.5l-191 -239h-53q-37 0 -38 19.5z" />
<glyph unicode="&#xea;" horiz-adv-x="886" d="M129 195v651q0 106 44 150t151 44h225q106 0 150 -44t44 -150v-230q0 -106 -44 -150t-150 -44h-123q-33 0 -42 11t-9 44v64h119q63 0 79.5 26.5t16.5 89.5v158q0 63 -20.5 85t-84.5 22h-88q-68 0 -86 -24t-18 -93v-569q0 -63 16.5 -90t79.5 -27h295v-64q0 -33 -9 -44 t-42 -11h-309q-106 0 -150.5 44t-44.5 151zM197 1180.5q-8 17.5 6 33.5l149 183q31 37 68 37h121l176 -220q14 -16 6 -33.5t-37 -17.5h-55l-174 172l-174 -172h-49q-29 0 -37 17.5z" />
<glyph unicode="&#xeb;" horiz-adv-x="886" d="M129 195v651q0 106 44 150t151 44h225q106 0 150 -44t44 -150v-230q0 -106 -44 -150t-150 -44h-123q-33 0 -42 11t-9 44v64h119q63 0 79.5 26.5t16.5 89.5v158q0 63 -20.5 85t-84.5 22h-88q-68 0 -86 -24t-18 -93v-569q0 -63 16.5 -90t79.5 -27h295v-64q0 -33 -9 -44 t-42 -11h-309q-106 0 -150.5 44t-44.5 151zM238 1284v109h125q33 0 44 -11.5t11 -44.5v-108h-125q-33 0 -44 11t-11 44zM512 1284v109h125q33 0 44.5 -11.5t11.5 -44.5v-108h-125q-33 0 -44.5 11t-11.5 44z" />
<glyph unicode="&#xec;" horiz-adv-x="430" d="M-3 1384q0 29 10.5 39.5t41.5 10.5h100l117 -240q6 -10 5 -29.5t-38 -19.5h-53zM133 0v985q0 33 11.5 44t43.5 11h109v-985q0 -33 -11.5 -44t-43.5 -11h-109z" />
<glyph unicode="&#xed;" horiz-adv-x="430" d="M133 0v985q0 33 11.5 44t43.5 11h109v-985q0 -33 -11.5 -44t-43.5 -11h-109zM179 1164.5q-1 19.5 5 29.5l117 240h109q31 0 41 -10.5t10 -39.5l-191 -239h-53q-37 0 -38 19.5z" />
<glyph unicode="&#xee;" horiz-adv-x="430" d="M-35 1180.5q-8 17.5 6 33.5l149 183q31 37 68 37h121l176 -220q14 -16 6 -33.5t-37 -17.5h-55l-174 172l-174 -172h-49q-29 0 -37 17.5zM133 0v985q0 33 11.5 44t43.5 11h109v-985q0 -33 -11.5 -44t-43.5 -11h-109z" />
<glyph unicode="&#xef;" horiz-adv-x="430" d="M-10 1284v109h125q33 0 44 -11.5t11 -44.5v-108h-125q-33 0 -44 11t-11 44zM133 0v985q0 33 11.5 44t43.5 11h109v-985q0 -33 -11.5 -44t-43.5 -11h-109zM264 1284v109h125q33 0 44.5 -11.5t11.5 -44.5v-108h-125q-33 0 -44.5 11t-11.5 44z" />
<glyph unicode="&#xf0;" horiz-adv-x="933" d="M129 195v651q0 106 44 150t151 44h317v123h-96q-33 0 -44.5 11.5t-11.5 44.5v63h152v29q0 63 -16.5 89.5t-79.5 26.5h-96q12 59 37.5 89t84.5 30h39q106 0 147.5 -44t41.5 -150v-70h84q33 0 44 -11t11 -44v-64h-139v-968q0 -106 -41 -150.5t-148 -44.5h-286 q-106 0 -150.5 44t-44.5 151zM293 236q0 -63 16.5 -90t79.5 -27h156q63 0 79.5 26.5t16.5 90.5v686h-252q-63 0 -79.5 -27t-16.5 -90v-569z" />
<glyph unicode="&#xf1;" horiz-adv-x="940" d="M133 0v985q0 33 11.5 44t43.5 11h109v-118q12 59 37.5 88.5t85.5 29.5h194q106 0 150.5 -44t44.5 -150v-791q0 -33 -11.5 -44t-43.5 -11h-109v805q0 63 -16.5 90t-79.5 27h-252v-867q0 -33 -11.5 -44t-43.5 -11h-109zM227 1196v33q0 63 9.5 103t27.5 63.5t45 34t64 10.5 q43 0 74.5 -20.5t57 -45t51 -45t56.5 -20.5q20 0 39 5t19 27v52q0 29 13 35t36 6h41v-33q0 -63 -9.5 -103.5t-28 -64t-46 -32.5t-64.5 -9q-43 0 -73.5 20.5t-57.5 44t-51.5 44t-54.5 20.5q-57 0 -58 -33v-51q0 -29 -13 -35t-36 -6h-41z" />
<glyph unicode="&#xf2;" horiz-adv-x="933" d="M129 195v651q0 106 44 150t151 44h286q106 0 150.5 -44t44.5 -150v-651q0 -106 -44 -150.5t-151 -44.5h-286q-106 0 -150.5 44t-44.5 151zM245 1384q0 29 10.5 39.5t41.5 10.5h100l117 -240q6 -10 5 -29.5t-38 -19.5h-53zM293 236q0 -63 16.5 -90t79.5 -27h156 q63 0 79.5 26.5t16.5 90.5v569q0 63 -16.5 90t-79.5 27h-156q-63 0 -79.5 -27t-16.5 -90v-569z" />
<glyph unicode="&#xf3;" horiz-adv-x="933" d="M129 195v651q0 106 44 150t151 44h286q106 0 150.5 -44t44.5 -150v-651q0 -106 -44 -150.5t-151 -44.5h-286q-106 0 -150.5 44t-44.5 151zM293 236q0 -63 16.5 -90t79.5 -27h156q63 0 79.5 26.5t16.5 90.5v569q0 63 -16.5 90t-79.5 27h-156q-63 0 -79.5 -27t-16.5 -90 v-569zM431 1164.5q-1 19.5 5 29.5l117 240h109q31 0 41 -10.5t10 -39.5l-191 -239h-53q-37 0 -38 19.5z" />
<glyph unicode="&#xf4;" horiz-adv-x="933" d="M129 195v651q0 106 44 150t151 44h286q106 0 150.5 -44t44.5 -150v-651q0 -106 -44 -150.5t-151 -44.5h-286q-106 0 -150.5 44t-44.5 151zM213 1180.5q-8 17.5 6 33.5l149 183q31 37 68 37h121l176 -220q14 -16 6 -33.5t-37 -17.5h-55l-174 172l-174 -172h-49 q-29 0 -37 17.5zM293 236q0 -63 16.5 -90t79.5 -27h156q63 0 79.5 26.5t16.5 90.5v569q0 63 -16.5 90t-79.5 27h-156q-63 0 -79.5 -27t-16.5 -90v-569z" />
<glyph unicode="&#xf5;" horiz-adv-x="933" d="M129 195v651q0 106 44 150t151 44h286q106 0 150.5 -44t44.5 -150v-651q0 -106 -44 -150.5t-151 -44.5h-286q-106 0 -150.5 44t-44.5 151zM219 1196v33q0 63 9.5 103t27.5 63.5t45 34t64 10.5q43 0 74.5 -20.5t57 -45t51 -45t56.5 -20.5q20 0 39 5t19 27v52q0 29 13 35 t36 6h41v-33q0 -63 -9.5 -103.5t-28 -64t-46 -32.5t-64.5 -9q-43 0 -73.5 20.5t-57.5 44t-51.5 44t-54.5 20.5q-57 0 -58 -33v-51q0 -29 -13 -35t-36 -6h-41zM293 236q0 -63 16.5 -90t79.5 -27h156q63 0 79.5 26.5t16.5 90.5v569q0 63 -16.5 90t-79.5 27h-156 q-63 0 -79.5 -27t-16.5 -90v-569z" />
<glyph unicode="&#xf6;" horiz-adv-x="933" d="M129 195v651q0 106 44 150t151 44h286q106 0 150.5 -44t44.5 -150v-651q0 -106 -44 -150.5t-151 -44.5h-286q-106 0 -150.5 44t-44.5 151zM238 1284v109h125q33 0 44 -11.5t11 -44.5v-108h-125q-33 0 -44 11t-11 44zM293 236q0 -63 16.5 -90t79.5 -27h156q63 0 79.5 26.5 t16.5 90.5v569q0 63 -16.5 90t-79.5 27h-156q-63 0 -79.5 -27t-16.5 -90v-569zM512 1284v109h125q33 0 44.5 -11.5t11.5 -44.5v-108h-125q-33 0 -44.5 11t-11.5 44z" />
<glyph unicode="&#xf7;" d="M139 735v64h559q33 0 44.5 -11.5t11.5 -44.5v-63h-559q-33 0 -44.5 11t-11.5 44zM342 362v109h125q33 0 44 -11t11 -44v-109h-125q-33 0 -44 11.5t-11 43.5zM342 1018v108h125q33 0 44 -11t11 -44v-108h-125q-33 0 -44 11t-11 44z" />
<glyph unicode="&#xf8;" horiz-adv-x="989" d="M-27 0l191 227v619q0 106 44 150t150 44h287q76 0 117 -20.5t57 -58.5l21 24q27 33 47 44t53 11h82l-182 -217v-628q0 -106 -44 -150.5t-151 -44.5h-287q-106 0 -137 30.5t-41 57.5l-26 -33q-27 -33 -47.5 -44t-51.5 -11h-82zM328 238q0 -66 16 -92.5t80 -26.5h156 q63 0 79.5 26.5t16.5 90.5v415zM328 399l348 414q0 55 -16.5 82t-79.5 27h-156q-63 0 -79.5 -27t-16.5 -90v-406z" />
<glyph unicode="&#xf9;" horiz-adv-x="940" d="M131 195v790q0 33 11.5 44t43.5 11h109v-804q0 -63 16.5 -90t79.5 -27h170v-64q0 -33 -9 -44t-42 -11h-184q-106 0 -150.5 44t-44.5 151zM315 1384q0 29 10.5 39.5t41.5 10.5h100l117 -240q6 -10 5 -29.5t-38 -19.5h-53zM643 0v985q0 33 11.5 44t43.5 11h109v-985 q0 -33 -11.5 -44t-43.5 -11h-109z" />
<glyph unicode="&#xfa;" horiz-adv-x="940" d="M131 195v790q0 33 11.5 44t43.5 11h109v-804q0 -63 16.5 -90t79.5 -27h170v-64q0 -33 -9 -44t-42 -11h-184q-106 0 -150.5 44t-44.5 151zM396 1164.5q-1 19.5 5 29.5l117 240h109q31 0 41 -10.5t10 -39.5l-191 -239h-53q-37 0 -38 19.5zM643 0v985q0 33 11.5 44t43.5 11 h109v-985q0 -33 -11.5 -44t-43.5 -11h-109z" />
<glyph unicode="&#xfb;" horiz-adv-x="940" d="M131 195v790q0 33 11.5 44t43.5 11h109v-804q0 -63 16.5 -90t79.5 -27h170v-64q0 -33 -9 -44t-42 -11h-184q-106 0 -150.5 44t-44.5 151zM223 1180.5q-8 17.5 6 33.5l149 183q31 37 68 37h121l176 -220q14 -16 6 -33.5t-37 -17.5h-55l-174 172l-174 -172h-49 q-29 0 -37 17.5zM643 0v985q0 33 11.5 44t43.5 11h109v-985q0 -33 -11.5 -44t-43.5 -11h-109z" />
<glyph unicode="&#xfc;" horiz-adv-x="940" d="M131 195v790q0 33 11.5 44t43.5 11h109v-804q0 -63 16.5 -90t79.5 -27h170v-64q0 -33 -9 -44t-42 -11h-184q-106 0 -150.5 44t-44.5 151zM242 1284v109h125q33 0 44 -11.5t11 -44.5v-108h-125q-33 0 -44 11t-11 44zM516 1284v109h125q33 0 44.5 -11.5t11.5 -44.5v-108 h-125q-33 0 -44.5 11t-11.5 44zM643 0v985q0 33 11.5 44t43.5 11h109v-985q0 -33 -11.5 -44t-43.5 -11h-109z" />
<glyph unicode="&#xfd;" horiz-adv-x="868" d="M68 985q-12 55 41 55h92l174 -661l41 -248h12l51 246l178 608q8 33 22.5 44t47.5 11h84l-387 -1396q-10 -33 -23.5 -44.5t-46.5 -11.5h-90l109 412h-54zM339 1164.5q-1 19.5 5 29.5l117 240h109q31 0 41 -10.5t10 -39.5l-191 -239h-53q-37 0 -38 19.5z" />
<glyph unicode="&#xfe;" horiz-adv-x="940" d="M135 -412v1790q0 33 11.5 44.5t43.5 11.5h109v-512q12 59 37.5 88.5t85.5 29.5h194q106 0 150.5 -44t44.5 -150v-651q0 -106 -44 -150.5t-151 -44.5h-184q-33 0 -42 11.5t-9 43.5v64h170q63 0 79.5 26.5t16.5 90.5v569q0 63 -16.5 90t-79.5 27h-252v-1278 q0 -33 -11.5 -44.5t-43.5 -11.5h-109z" />
<glyph unicode="&#xff;" horiz-adv-x="868" d="M68 985q-12 55 41 55h92l174 -661l41 -248h12l51 246l178 608q8 33 22.5 44t47.5 11h84l-387 -1396q-10 -33 -23.5 -44.5t-46.5 -11.5h-90l109 412h-54zM219 1284v109h125q33 0 44 -11.5t11 -44.5v-108h-125q-33 0 -44 11t-11 44zM493 1284v109h125q33 0 44.5 -11.5 t11.5 -44.5v-108h-125q-33 0 -44.5 11t-11.5 44z" />
<glyph unicode="&#x152;" horiz-adv-x="1333" d="M143 195v1044q0 106 44 150.5t151 44.5h901v-64q0 -33 -9 -44t-42 -11h-340v-512h330v-64q0 -33 -9.5 -44t-42.5 -11h-278v-565h391v-64q0 -33 -11 -44t-44 -11h-846q-106 0 -150.5 44t-44.5 151zM307 236q0 -63 16.5 -90t79.5 -27h281v1196h-281q-63 0 -79.5 -26.5 t-16.5 -90.5v-962z" />
<glyph unicode="&#x153;" horiz-adv-x="1398" d="M129 195v651q0 106 44 150t151 44h249q37 0 69 -8t60 -22q45 31 134 30h266q106 0 150 -44t44 -150v-230q0 -106 -44 -150t-150 -44h-164q-33 0 -42 11t-9 44v64h149q63 0 80 26.5t17 89.5v160q0 55 -19.5 80t-77.5 25h-125q-66 0 -85 -21.5t-21 -83.5v-581 q0 -63 16.5 -90t79.5 -27h336v-64q0 -33 -9 -44t-42 -11h-350q-88 0 -131 29q-47 -29 -115 -29h-266q-106 0 -150.5 44t-44.5 151zM293 236q0 -63 16.5 -90t79.5 -27h156q63 0 79.5 26.5t16.5 90.5v591q-4 51 -21.5 73t-74.5 22h-156q-63 0 -79.5 -27t-16.5 -90v-569z" />
<glyph unicode="&#x2c6;" horiz-adv-x="757" d="M117 1180.5q-8 17.5 6 33.5l149 183q31 37 68 37h121l176 -220q14 -16 6 -33.5t-37 -17.5h-55l-174 172l-174 -172h-49q-29 0 -37 17.5z" />
<glyph unicode="&#x2dc;" horiz-adv-x="778" d="M135 1196v33q0 63 9.5 103t27.5 63.5t45 34t64 10.5q43 0 74.5 -20.5t57 -45t51 -45t56.5 -20.5q20 0 39 5t19 27v52q0 29 13 35t36 6h41v-33q0 -63 -9.5 -103.5t-28 -64t-46 -32.5t-64.5 -9q-43 0 -73.5 20.5t-57.5 44t-51.5 44t-54.5 20.5q-57 0 -58 -33v-51 q0 -29 -13 -35t-36 -6h-41z" />
<glyph unicode="&#x2000;" horiz-adv-x="925" />
<glyph unicode="&#x2001;" horiz-adv-x="1850" />
<glyph unicode="&#x2002;" horiz-adv-x="925" />
<glyph unicode="&#x2003;" horiz-adv-x="1850" />
<glyph unicode="&#x2004;" horiz-adv-x="616" />
<glyph unicode="&#x2005;" horiz-adv-x="462" />
<glyph unicode="&#x2006;" horiz-adv-x="308" />
<glyph unicode="&#x2007;" horiz-adv-x="308" />
<glyph unicode="&#x2008;" horiz-adv-x="231" />
<glyph unicode="&#x2009;" horiz-adv-x="370" />
<glyph unicode="&#x200a;" horiz-adv-x="102" />
<glyph unicode="&#x2010;" horiz-adv-x="884" d="M135 739v64h559q33 0 44.5 -11.5t11.5 -43.5v-64h-560q-33 0 -44 11.5t-11 43.5z" />
<glyph unicode="&#x2011;" horiz-adv-x="884" d="M135 739v64h559q33 0 44.5 -11.5t11.5 -43.5v-64h-560q-33 0 -44 11.5t-11 43.5z" />
<glyph unicode="&#x2012;" horiz-adv-x="884" d="M135 739v64h559q33 0 44.5 -11.5t11.5 -43.5v-64h-560q-33 0 -44 11.5t-11 43.5z" />
<glyph unicode="&#x2013;" horiz-adv-x="884" d="M135 739v64h559q33 0 44.5 -11.5t11.5 -43.5v-64h-560q-33 0 -44 11.5t-11 43.5z" />
<glyph unicode="&#x2014;" horiz-adv-x="1124" d="M109 739v64h874q33 0 44 -11.5t11 -43.5v-64h-874q-33 0 -44 11.5t-11 43.5z" />
<glyph unicode="&#x2018;" horiz-adv-x="419" d="M119 1325v154q0 66 29.5 92t89.5 39v-176h6q33 0 44 -11.5t11 -44.5v-108h-125q-33 0 -44 11t-11 44z" />
<glyph unicode="&#x2019;" horiz-adv-x="403" d="M106 1325v109h125q33 0 44.5 -11.5t11.5 -44.5v-153q0 -66 -30 -92.5t-89 -38.5v176h-6q-33 0 -44.5 11t-11.5 44z" />
<glyph unicode="&#x201a;" horiz-adv-x="440" d="M133 55v109h125q33 0 44 -11.5t11 -43.5v-154q0 -66 -29.5 -92.5t-88.5 -38.5v176h-7q-33 0 -44 11.5t-11 43.5z" />
<glyph unicode="&#x201c;" horiz-adv-x="706" d="M119 1325v154q0 66 29.5 92t89.5 39v-176h6q33 0 44 -11.5t11 -44.5v-108h-125q-33 0 -44 11t-11 44zM406 1325v154q0 66 29.5 92t89.5 39v-176h6q33 0 44 -11.5t11 -44.5v-108h-125q-33 0 -44 11t-11 44z" />
<glyph unicode="&#x201d;" horiz-adv-x="690" d="M106 1325v109h125q33 0 44.5 -11.5t11.5 -44.5v-153q0 -66 -30 -92.5t-89 -38.5v176h-6q-33 0 -44.5 11t-11.5 44zM393 1325v109h125q33 0 44.5 -11.5t11.5 -44.5v-153q0 -66 -30 -92.5t-89 -38.5v176h-6q-33 0 -44.5 11t-11.5 44z" />
<glyph unicode="&#x201e;" horiz-adv-x="727" d="M133 55v109h125q33 0 44 -11.5t11 -43.5v-154q0 -66 -29.5 -92.5t-88.5 -38.5v176h-7q-33 0 -44 11.5t-11 43.5zM420 55v109h125q33 0 44 -11.5t11 -43.5v-154q0 -66 -29.5 -92.5t-89.5 -38.5v176h-6q-33 0 -44 11.5t-11 43.5z" />
<glyph unicode="&#x2022;" horiz-adv-x="583" d="M111 729q0 115 52 158t130 43q76 0 129 -44t53 -157t-53 -157t-129 -44q-78 0 -130 44t-52 157z" />
<glyph unicode="&#x202f;" horiz-adv-x="370" />
<glyph unicode="&#x2039;" horiz-adv-x="593" d="M94 598v20l344 340q16 -25 17 -59q0 -45 -23.5 -91t-54.5 -77l-119 -119v-4l117 -119q31 -31 54.5 -76.5t23.5 -90.5q0 -35 -19 -62z" />
<glyph unicode="&#x203a;" horiz-adv-x="593" d="M137 899q0 35 17 59l344 -340v-20l-340 -338q-18 27 -19 62q0 45 23.5 91t54.5 76l117 119v4l-119 119q-31 31 -54.5 77t-23.5 91z" />
<glyph unicode="&#x205f;" horiz-adv-x="462" />
<glyph unicode="&#x20ac;" horiz-adv-x="929" d="M104 569v64h132v158h-76q-33 0 -44.5 11t-11.5 44v63h132v330q0 106 44 150.5t150 44.5h264q59 0 85 -30t38 -89h-321q-63 0 -80 -26.5t-17 -90.5v-289h265q33 0 44 -11t11 -44v-63h-320v-158h265q33 0 44 -11.5t11 -43.5v-64h-320v-278q0 -63 16.5 -90t80.5 -27h321v-64 q0 -33 -9 -44t-42 -11h-336q-106 0 -150 44t-44 151v319h-76q-33 0 -44.5 11.5t-11.5 43.5z" />
<glyph unicode="&#x25fc;" horiz-adv-x="1044" d="M0 0v1044h1044v-1044h-1044z" />
</font>
</defs>
</svg>
